<svg xmlns="http://www.w3.org/2000/svg" width="500" viewBox="0 0 375 375" height="500" version="1.0"><path d="M209.226 42.719c0-.75-.902-3.297-1.351-3.45 0 0-.149-.148-.149-.449-.3-.898-1.648-2.097-3.148-3.144-1.945-1.649-6.14-3.895-8.238-4.344-13.934-5.844-39.856-3.148-53.64-1.352-1.048.301-.15.45 1.5.301 1.347-.148 2.995 0 2.245-.3-.45-.149 1.95-.297 4.195-.297 2.399 0 0-.153-.3-.301.152-.149 2.847-.149 5.097-.301h1.645c-1.645-.148-.598-.297 1.351-.297 3.297 0 1.348-.3 5.692-.3 2.098 0 3.898-.153 4.047-.153.3-.148.3-.148.148.152-.297.149.3.149 5.695.301 9.438.149 11.985.45 19.625 2.395 7.493 2.699.153.449-2.996 0-3.445-.899-8.39-1.2-12.136-1.496-15.73-.301-26.817.597-40.602 2.695-15.133 2.547-28.77 5.246-43.152 9.14-3.145.899-5.844 1.797-8.84 2.247-2.246.75-5.543 1.796-7.64 2.398-.75.3-.9.45-1.95.598-.898 0-2.098.3-5.543 1.5-4.793 1.648-6.594 2.246-6.89 2.547-1.801.898-3.598.75-6.145 2.097-4.195 1.649-6.89 1.95-11.086 3.594-2.547.902-4.645 1.5-6.895 2.7-.597 0-4.042 1.948-4.195 1.198.153-.3.75-.152 1.05-.601.75-.45 1.2-.45 1.798-.598.152 0 .3-.148.152-.3-.152-.149 1.496-.301 1.348-.45 0 0 .148-.148.297-.148.3 0 .152-.301.601-.301.75-.3 2.848-1.348 3.746-1.648.899-.149 3.297-1.497.598-.598-3.746 1.348-7.941 2.844-11.535 4.344-1.8.898-1.2-.301-2.848.75-.597.449-.898.3-1.5.597-.449.301-.746.153-1.047.45-.148 0-.3.152-.3.152-.149 0-1.047.297-2.098.898-6.59 2.996-8.54 4.043-9.438 4.793-1.199.75-1.8 1.649-3.296 1.649-.301 0-.45.148-.75.449-.45.75-1.047 1.348-1.348 1.95 0 .3-.75 1.648-1.05 2.097-.599 1.199.151 1.047.151 2.246-.152.898.149.75.598 1.5.152.45.45.75 1.2 1.047 4.195 1.199 9.14-.297 14.831-1.2 5.696-1.046 11.989-2.546 17.23-4.195 4.048-1.047 8.692-2.394 12.438-3.746 7.34-1.797 15.73-5.242 23.375-6.59.598-.152 1.645-.3 4.793-.75 4.946-.597 5.844-.898 5.844-1.797 0-.152.3-.601 1.2-1.5 1.046-.75 2.546-4.343.898-3.144-1.5 1.047-3.297 1.047-5.395 1.2-16.781 1.944-32.062 8.687-48.246 11.835-5.844 1.2-11.984 2.695-18.43 3.145 1.95-1.348 6.743-3.145 8.993-4.344 4.043-2.098 7.64-3.598 11.835-5.395 1.497-.75 2.547-.898 4.047-1.5.45-.148 1.496 0 2.696-.746 4.793-1.8 8.691-2.996 13.336-5.094 5.543-1.351 10.785-3.148 16.48-4.945 2.695-.601 4.645-1.2 8.39-2.398 3.594-1.2 11.985-2.848 13.934-3.746 5.543-1.497 11.086-2.547 16.93-3.895.3 0-.148.898-.746 2.098-.602 1.199-1.2 2.398-3.899 7.64-2.695 5.395-3.144 6.442-5.093 11.989-1.2 2.843-2.246 6.14-3.297 8.988-.149.3.152.45.449.3.3-.152.3-.152.152.15-.449 1.198-.3 1.347-1.648 4.046-11.238 28.465-22.477 57.535-31.316 87.2-4.493 14.534-8.54 30.265-10.336 45.25-.75 7.64-.899 16.48 0 22.472.148 1.95 1.496 2.848 2.246 4.348.148.449.3 1.496.898 1.648.152 0 .45.297.602.45.297.148.746.597 1.347.745 1.047.45.598.903 1.496.75 1.051-.148 1.5.899 2.547-.3 2.098-1.645 5.098-5.094 5.844-7.34 1.2-2.696 2.098-6.442 2.399-8.989.148-.601.597-3.449-.149-2.547-.152.598.746-5.246 1.2-6.894.148-.598.148-.598.148.3-.149 1.048-.301 1.65-.602 3.298-.148.898-.297 1.648 0 1.648.602-1.05 1.05-3.898 1.2-4.644.75-2.551.898-3.149-1.047-4.797-3.598 0-3.149.148-3.895 3.148-.902 3.746-1.648 7.488-2.7 10.488-1.046 2.996-2.995 7.938-4.945 10.036-.898-3.145.153-13.633.45-18.727 1.199-12.887 3.898-25.023 7.343-37.758.149-.598.149-.75 0-1.047-.148-.449 0-.902.899-3.148.898-2.695 1.5-5.844 2.246-8.692.152-1.347.3-1.046.602-2.394.597-1.649.597-2.7 1.347-4.348.598-1.945 1.649-4.793 1.95-6.441 0-.45.898-2.246.898-2.695 1.047-2.547 2.097-5.997 2.847-8.692.297-1.348.747-1.348 1.047-2.547.45-1.347 1.649-4.797 1.95-5.543 2.097-6.293 4.644-12.586 6.89-18.879.301-.75 1.051-2.699 1.5-3.746.45-1.347 1.649-3.445 1.797-4.644.3-.45.75-1.797.75-2.098 0-.3.75-1.348.75-1.797.297-.902.899-3 1.496-3.746 1.05-2.547 1.2-3.45 2.7-6.445 1.644-4.344 3.593-9.438 5.69-14.235 1.65-3.445 2.848-6.441 4.196-9.738 2.246-4.492 3.445-7.941 5.246-11.984.899-4.348 5.543-8.692 3.293-13.336 4.945-1.047 11.988-2.246 16.485-2.996 2.097-.149 6.742-.899 7.937-1.051 1.2-.148 5.395-.45 5.695-.898 2.547-.149 8.09 0 14.086-.598 7.04-.45 9.438 0 14.98.45.302.148 7.345.3 7.641.448.602.45 2.996.899 3.899 1.2 3.894 1.046 8.84 2.398 11.683 5.843 1.5 2.098 0 6.89-.898 8.688-1.047 2.847-3.445 4.644-4.793 7.492-.148.602-1.5 2.547-2.098 3.297-.75.75-.3 1.05 0 .601 1.496-.601 7.043-6.445 8.09-7.644 1.649-1.945 3.598-7.942 2.7-10.785zM15.946 75.23c-.153 0-.45-.3-.153-.3.152 0 .152.3.152.3zm1.944 0c-.898 0 0-.148.301 0h-.3zm16.184-2.695c-.45 0 .149-.601.3-.152 0 .152-.151.152-.3.152zm2.098-.45c-.45.15-1.5.45-1.5.15.152-.301.75-.15 1.199-.301.3 0 .45 0 .3.152zm14.683-5.546c.45 0 .598-.297.899-.45.148.302-.602.602-.899.602-.3-.152-.3-.152 0-.152zM29.88 71.633c5.844-.899 14.531-3.895 20.527-4.942-1.95.746-5.246 1.649-6.894 2.246-1.497.899-2.547 1.649-5.094 2.098-1.047.149-2.996.598-4.043.598-.602 0-.75 0-.902.3 0 .153-.149 0-.149-.148-.598-.3-4.945.3-3.445-.152zm-8.992 3c3.449-.153 9.14-1.649 12.437-2.098-.45.598-.75.45-3.297 1.047-2.547.602-4.496.75-7.191 1.348-1.2.152-4.344.3-4.196.152.45-.152 1.797-.3 2.247-.45zM35.12 62.945c-.598 0-1.2.75-1.797.899-1.2.597-1.348.449-.45-.149.75-.453 2.997-1.351 2.247-.75zm41.055 154.922c.3-1.496.597-2.996.3-3.445 0-1.047 1.047-3.594 1.348-4.344.75-1.797.45 1.2.149 1.496-.45 2.25-.899 4.348-1.497 6.445-.601 2.098-.898 1.946-.3-.152zm-.45 2.098v.3c-.148.301-.148-.449 0-.3zm28.618-144.883c.3 0 .3.297 0 .297-.149 0-.149-.297 0-.297zm1.05 3.445c0-.148 0-.148.149-.148.449 0 0 1.195-.602 2.246-.297.45-.449.45-.597.148-.301-.449-.149-.75.148-.449.152.301.3.301.3 0 .302-.597.602-.898.602-1.797zm-1.199-2.996v.297c0 .602-.75-.148 0-.297zm-.3 6.742c.148.899-1.2-.3-.301-.3.3 0 .3.148.3.3zm-.9-4.945c.302-.75 1.2-.148.45 0-.3.149-.148.75-.45.75-.3.149-.3-.152 0-.75zm.15 5.844c-.15.3-.15-.45 0-.301v.3zm-.301 1.496c-.297 0-.149.75-.45.75-.597-.149.301-.598.301-.899 0-.449.602-.148.149.149zm-1.496 1.95c-.149-.302-.149-.302.148-.302.3 0 .3-.449.602-.597.597-.45-.75 2.398-.899 2.695-.152.602-.601.602-.3.152.148-.601.3-.449.3-1.05 0-.598.45-.598.149-.899zm1.199-8.24c.148.15.148.45 0 .599v-.598zm-.899 2.696c.45-.449.297-2.097 1.047-1.648.149.148 0 .3-.3.898-.15.45-.45.899-.45.899-.297 0-.297.3-.148.449.148 0 .148.3-.149.601-.152.45-.152.75-.152.75.152 0-.297.297-.45.598-.75 1.047.153-1.95.602-2.547zm-1.351 3.746c.152-.449.152.899 0 .899-.297 0-.297-.598 0-.899zm-.746 1.496c.297 0 .297.602 0 .602-.153 0-.153-.602 0-.602zm-.301.75v.301c-.149.3-.149-.601 0-.3zm-.899 7.793c.297-.3-.152-.449.149-.898.45-.3.601-1.649.898-2.098.45-.449 1.051-2.847 1.5-2.699 0 .152-.449.45-.3.75 0 .598-1.2 3.445-1.797 4.793-.301.602-.602 1.05-.602 1.05-.297 0-.148-.6.152-.898zm-.449 2.547c.149-.152.149.45 0 .45 0 0-.3-.45 0-.45zm-2.699 6.442c.45-.301 1.05-2.547 1.348-3.297.3 0 .601-1.348.75-1.496.898-.301-1.047 3.746-1.047 3.894 0 .301-.602 2.098-1.051 1.2-.148-.153-.148-.301 0-.301zm-1.945 5.246c.449-.602.898-3.746 1.648-3.899.598.301-.3-.898.598-.449.148.152 0 .3-.45 1.348-.449 1.05-.148 1.351-.601 1.949-.297.3-.148.75-.45 1.05-.448.45-1.347.598-.745 0zm-8.243 17.23c.45 0-.148.45-.148.149 0-.149.148-.149.148-.149zm-6.593 24.871c.449-.601.601-1.949.898-2.547.903-2.398.903-3.148 1.95-5.996.449-.898.6-2.246 1.05-2.996.297-.449-.3 0 0-.597.149-.149.149-.45.149-.75-.149-.301-.149-.301 0-.149.3.45.75-1.05.75-1.2 0-.3.449-1.198.597-1.347.153-.449 0-.75.301-1.351.45-.598 0-1.348.45-1.645.448-.152.3-.902.448-1.05.149-.15.598-1.95.75-2.098.149-.149.75-2.098.75-2.696 0-.75.747-1.05.747-1.949 0-.148.902-.898.601-1.199-.45-.3.3-.3.3-.598 0-.3 0-.449.15-.449.148-.152-.15-.45.148-.898 1.05-2.098.898-2.25 1.347-4.047 0-.301.153-.45.301-.45 0 0 .149 0 .149-.152 0 0 0-.297.3-.449.301-.297.153-.898.45-1.047.152-.3 0-.45.3-.75 0-.148.301-.75.45-1.348.148-.898.597-1.199.597-1.796 0-.602.153.148.301-.75-.3-.75.899-1.5.899-.602-.899 2.848-2.395 6.742-3.297 9.441-.899 2.547-2.547 5.243-2.996 7.493-4.344 13.632-9.586 27.867-13.633 41.8-.75 2.547-.45 3.297-1.2 5.395 0 .148-.3 1.2-.449.898-.148-.3-.148-.148-.148 0 0 .301-.152.75-.3 1.2-.45.597-1.5 8.39-1.798 4.793 0-.899.297-.45.297-1.348.3-.899.602-2.848.902-3.594.149 0 .45-.601.598-1.648 0-.153.149-.45.3-.301.298-.149.15-1.2.298-1.5.3-.899.3-2.395.601-3.293.149-.152.598-1.648.75-2.25 0-.598.746-1.496.598-1.945 0-.153 0-.301.148-.301.45-.149.45-2.399.75-3.297.45-.45.45-1.648.75-2.098.301-1.047.598-1.347.899-2.547.3-1.796 1.5-3.746 1.648-5.543-.148-.152 0-.3.149-.449zm-8.688 38.055c0-.297.598.3.45.45-.153.152-.45-.298-.45-.45zm0 1.2s-.152-.598 0-.598c.149 0 .149.597 0 .597zm.297-2.098c-.148 0-.148-.598 0-.598.152 0 .152.598 0 .598zm5.844-37.458c.3-.898.45-.148.3.301-.148.598-.449.297-.3-.3zm-.598 2.247c1.649-4.196-.3 3-1.05 5.394-5.391 18.879-10.637 36.258-11.985 56.04-.152 1.347 0 4.343-.602 5.542 0-23.074 7.196-45.398 13.637-66.976zm-6.594 34.011c-.449 3.45-2.097 9.14-2.695 13.035 0 .301-.152.45-.3.301-.15-1.797.3-1.648.449-3.746.148-1.047.601-1.496.601-2.848 0-.746.297-.746.45-1.496l.296-.601c.153 0 0-.149-.148-.297-.149-.152-.149-.3 0-.45.148-.152.148-.902.3-1.198.45-1.051.899-3.149 1.2-4.797.898-3.297 1.195.449 0 1.648-.153.152-.153.3-.153.45zm-6.742 34.91c-.449-.148-.148-.597-.3-1.046-.149-.602-.149-.602 0-.602.3 0 .449 1.648.3 1.648zm.301 2.997c-.152-.598-.3-2.696-.152-2.547.3.3.152 2.097.3 2.547.153.601 0 .601-.148 0zm.3 3.449v-1.2c0 .899.45 2.247.45 2.997-.3 0-.45-.75-.45-1.797zm1.048 3.746c-.149 0-.75-1.5-.75-1.649 0-.152 1.05 1.649.75 1.649zm.597-20.23c-.148 4.796-.449 18.28.301 20.976-1.496.152-1.2-21.426-.3-20.977zm-.148-1.196c.148-2.547.45-4.195.898-6.894.301-2.848.45-3.297.602-3.145.148.148.148 1.047 0 1.047-.3.75-.152 4.047-.45 4.195-.152 0-.3.75-.3 1.649.148.75-.899 5.543-.75 3.148zm1.95 19.027c-.153 2.098-.302 2.997-.45 2.399-.3-2.25-.75-8.692-.45-10.192.598-.898.15 3.899.45 3.747.148-.598.297 0 .297 1.05 0 1.496.3.598.152 2.996zm3.745-36.109c-.75 2.246-.601 2.996-1.351 5.992-.598 2.7-.899 4.946-1.196 7.64-.3.45-.152 2.849-.601 2.548-.149-.149-.149-.149 0-.45.3-.449.3-2.394.152-2.097-.3 0-.902 4.644-.453 3.598.152-.75.602-.301.3.3-.148.45-.448 0-.597.45-.152.597-.3 2.996 0 3.144.149 0-.152-1.2.149-1.496.3-.3 0-1.05.148-1.352.152-.148.152 0 .152.602.149 1.496-.449 2.398-.601 3.144 0 .153.152.153.152 0 .297-.296 0 8.543-.152 8.391-.149.152-.149-1.047-.149-2.547.149-.898-.148-.898-.3-.297 0 .149 0 .45-.149.45-.45-5.844 1.047-17.23 2.246-23.973.602-3.746 1.051-4.496 1.649-6.293 0-.45.3-.898.3-.602.149.75-.449 2.399-.3 2.996.152.301.3.301.3 0 0-.449.75-.746.301-.148zm.746-2.996c-.148 0-.148.148-.148.148.148.153-.149 1.5-.3 1.5-.298-.152.151-.898 0-1.199 0-.3.151-.597.3-.597.148.148.3-.75.3-1.051 0 .3.15 1.199-.152 1.199zm.153-1.2c-.153 0-.153-.3 0-.3.3 0 .3.3 0 .3zm.3-1.046v-.602c.149-1.797.297.301 0 .602zm.45-1.8c-.153.3-.45.3-.45 0 0-.15.598-.15.45 0zm2.246-8.54c0 .148 0 .148-.149-.148.149-.301.297 0 .149.148zm.597-1.348c-1.046 1.946-.148-.898.153-1.199.148 0 .148.3-.153 1.2zm16.032-53.039c-.899 1.645-.45 1.797-1.047 2.996-.899 1.496-.899 2.696-1.797 4.942-1.8 4.797-.899 3.746-2.25 6.445-1.047 2.547-3.594 11.688-4.344 13.633-1.047 2.098-1.95 5.992-2.695 8.39-.602 1.797-.902 3.149-1.352 5.094-.297.75-.297.899-.148 1.051.148.149.148.149 0 .149-.3 0 0 .75-.149.75-1.05 1.046-1.5 4.195-2.097 5.843-.153 1.047-1.051 4.043-1.348 5.543-.152.301-.3 1.649-.152 1.649.152 0 .152-.149.152-.45 0-.152.149-.152.149-.152.148.3-.301 1.2-.45 1.2-.152.3-.152 1.8-.449 2.25-.601 1.046-.45 2.245-1.2 3.296-1.347 1.645-1.05 1.047-.75-.152 1.349-4.344 1.798-8.39 3.15-13.035 2.843-10.938 6.292-20.825 9.437-31.016 1.347-4.344 4.195-11.234 5.543-16.18.152-.3 1.5-3.894 1.648-3.445.301 0 .45.598.149 1.2zm14.086-35.363c-.149.152-.149.3-.301.45-.45.3.601-1.348.3-.45zm1.5-7.191c0 .449-.301.3-.301.75 0 .449-.45 1.199-.45 1.648 0 .148-.152.3-.152.3-.297 0-.148.747-.297.9-.449 0 0 1.495-.3 1.046-.149-.148-.301 0-.598.602-.3.898-.602 1.199-.75 2.246-.45 1.5-1.2 4.047-2.098 5.992-.898 2.7-1.949 4.945-2.547 7.645-.75 2.546-2.398 5.69-3.296 8.238-1.348 3.445-2.547 7.941-4.645 11.687-.898.45 2.246-6.89 2.246-7.043 1.797-5.093 4.797-13.035 6.594-17.828.45-1.05.898-2.996 1.648-4.047 0-.148.149-.898.45-1.199.597-1.2 1.046-2.996 1.496-4.195 0-.297 1.8-3.746 1.8-4.043-.152-.153 1.496-4.047 1.2-2.7zm.597-4.344c-.148.3-.148-.598 0-.3v.3zm0-6.293c0 .45-.3 3.445-.898 3.144 0 0-.301.301-.45.602-1.5 2.246 1.047-3.746 1.348-4.047zm1.047 3.746c-.297.598-.45.75-.45.45 0-.598 1.2-1.798.45-.45zm.3-4.496c-.148.3-.148-.45-.148-.3.149.151.149.151.149.3zm.45 8.543c-.148.297-.148-.75 0-.453v.453zm.45-6.746c-.15 0-.15-.297 0-.45.3-.148.152-.597.449-.746.449-.3-.45 1.348-.45 1.196zm.6 3.898c-.3.149-.3-.449 0-.449.15 0 .15.297 0 .45zm.298-.75c-.297.149-.297.301-.297 0-.152-.3.598-.449.297 0zm-.149-7.941c-.3 0-.148-.45 0-.45.301-.148.301.45 0 .45zm.602 6.742c-.152 0-.152-.148 0-.3.148-.15.148.3 0 .3zm.148-.75c0-.148.598-1.348.45-.598 0 .149-.598 1.2-.45.598zm.75-5.844c-.3.45-.75.903-.449.301.149-.3.149-.898.297-1.047.3-.152.45 0 .152.746zm.149-1.047c-.149 0-.598-.148-.45-.449.301-.75.598.149.45.45zm.3-5.992v-.152c0-.598.149 0 0 .152zm.75 1.2c.149-.301.45-.301.45-.153 0 .3-.75 1.05-.45.152zm.45 7.19c-.301.15-.153-.448 0-.448.297 0 .148.296 0 .449zm84.652-35.51c0-.15.149-.15.3 0 .298 0-.448.148-.3 0zM54.45 54.554c0 .148 0 .148-.148.3-1.348.45-.598-.453.148-.3zm148.484-17.832c-.453.152-1.05 0-2.847-.746-4.797-1.801-3.446-1.352-7.64-2.25-17.68-3.297-39.556-1.2-58.138 1.648-5.093.898-5.394.898-8.09 1.348 0-.149.149-.149.301-.149.297 0 .45-.3 0-.449 0-.45-7.043 2.246-7.043 1.648-.148-.148-.75 0-.75.301 0 .149-1.347.598-2.394.899-11.238 2.394-23.227 5.394-34.164 8.84-8.84 2.546-15.883 4.492-25.621 7.94-5.692 1.946-12.735 4.345-18.278 6.59-.152.153-1.648.301-1.949.45-.898-.297.75-1.047 1.5-1.348 2.848-1.199 4.793-1.945 7.79-3.144 3.745-1.348 3.898-1.2 5.093-2.399-.148-.449 1.05-.449.3 0-.148.301-.148.301.302.301 19.777-7.191 38.054-12.586 58.882-17.832 4.344-1.496 9.887-2.098 13.786-2.996 1.796 0 11.386-1.945 14.683-2.246 17.23-2.25 49.742-6.145 64.727 3.594zM279.33 243.615c.747-.75 1.196-.597 1.497-.898-.149-.602-2.247 1.047-2.696 1.199-1.199.598-.3.898 1.2-.3zm-21.726 12.438c.598-.45 3.297-1.5 2.996-1.801-.598 0-2.098 1.351-2.695 1.2-.153 0-.602.151-.75.448-1.2.602-1.649 1.2.449.153zm30.414-16.782c0-.449-2.547 1.047-2.848 1.649-.297.45-1.195 1.047-1.496.898 0-.152-.148 0-.148.149-.301.449-.75.148-1.051.75-.3.75-.898.449-1.348.898-1.05.899-3.148 1.348-4.195 2.098-.45.148-.45.898-.898.898-.153 0-.45.153-.75.301-.75.3-1.5.3-1.95 1.047 0 .3-1.199.902-.746 1.2 1.946-.9 9.887-5.845 10.938-6.442 1.347-.899 3.445-2.098 4.644-3.149.149 0 .149-.148-.152-.297zm4.797-3.296c-1.051.898-4.645 2.546-3.746 2.996 2.097-1.2 2.547-1.797 4.492-2.848 1.8-1.047-.297-1.047-.746-.148zm-18.13 10.488c0 .148.15 0 .298-.152.152-.297 1.347-.899 1.648-1.196 0-.601-1.047.45-1.945.598-1.05.3-1.2 1.05-1.8 1.348-.298 0-1.65.75-1.65 1.05-.296.297.45.149.75-.152.15-.148.301-.297.45-.297.152 0 1.797-.898 2.098-1.2 0-.151.152-.151.152 0zm-4.046 3.445c-.602.301-1.05 0-1.648.45-.149.3-3.446 1.796-4.344 2.695-.301 0-2.098 1.05-2.547 1.199-.602.3.297.152.148.601 0 .149-.597.149-.75-.152-.148-.297-.597 0-.148.3.148.15.148.15-.152.15-1.348 0-.45.75-1.348.6-.898-.148-2.695 1.497-2.996 1.349-.3 0-.598.601-1.047.601-.3 0-.45 0-.45.149 0 .148-.152.148-.3.148-.152 0-.152.152-.152.152 0 .149-.45.297-.899.45-.898.148-.898.597-1.496.898 1.348.3 1.797-.152 4.344-1.348 3.598-1.8 4.644-2.699 7.941-4.496 1.797-1.05 4.344-2.547 6.145-3.445.449-.152.449-.75-.301-.3zm30.414-18.73c.3 0 .899-1.047 1.2-1.047.148 0 .148-.149.148-.149.152-.902-1.645 1.047-1.348 1.196zm-4.793 2.699c-.148 0-1.2.75-1.648 1.2.597.148 2.695-1.2 1.648-1.2zm2.399-1.5c-1.051 1.2.746 0 .746-.297 0-.3-.297-.152-.746.297zm-.75.45c-.153.151-.301.3-.45.3-.601 0-1.05 1.348.149.45.3-.15.75-1.2.3-.75zm1.347-2.395c-.3 0-2.097 1.046-2.547 1.648-.3.297-.597.45-.898.45-.899 0-1.797 1.198-2.848 1.648-1.047.898-.597.898-1.648 1.347-1.047.45-1.649.899-1.649 1.2-.148.296.45.296.75 0 1.2-.903 5.395-3.598 6.891-4.645.602-.152.45-.45.902-.602.149 0 1.348-1.046 1.047-1.046zm-17.98 11.836c.3-.153 1.05-.153 1.05-.45.149-.3.747 0 .899-.449.3-.3 2.246-1.351 1.945-1.648-.148-.153-1.797.597-1.797.898.301.149-3.296 1.95-2.097 1.649zm82.406-93.946c-.898-3.594-2.547-10.039-5.844-12.285-.449-.45-.597-.75-1.797-2.098-3.593-4.046-7.043-6.89-11.238-8.691-4.344-2.246-10.785-5.094-15.879-5.691-4.945-1.649.746-.45 2.246-.301 3.145.3 7.192 2.547 9.739 3.597 1.5.899 2.097 1.047 2.246.899-1.348-1.797-4.942-2.996-7.192-4.047-22.172-7.492-47.047-4.344-69.07 4.797-33.711 12.586-66.524 36.707-84.055 68.32-7.793 13.934-12.586 31.614-12.886 46.297-.149 3.45-.149 4.195.3 4.945.149.45.45 2.997.598 3.297.902 5.242 1.95 10.04 4.195 14.383 1.801 4.195 7.344 11.09 11.39 14.086.599.598 3.446 2.547 3.743 1.945 0-.148.3-.148 1.05-.148 1.5.45 1.048-.45.302-.899-4.196-2.847-11.09-8.84-13.036-14.085-5.093-10.938-2.097-33.563 1.649-45.696 11.684-38.808 45.547-66.824 80.906-83.008 2.098-1.046 4.195-1.648 5.992-2.546 1.801-.899.301.898-.148 1.5-.598.898-2.246 3.293-2.399 3.593l-5.542 8.54c-8.54 12.738-15.282 24.574-21.727 38.656-.297.75-.45 1.05-.598 2.25 0 1.648-.75 1.347 0 2.996 1.047 1.797 1.2 1.648 2.547 1.496.45.152.598 0 .598-.149.152-.3 1.648-2.097 1.949-2.097 1.5-1.496 2.547-4.344 3.598-6.293 5.242-10.637 11.535-21.274 18.277-31.313 2.547-3.898 2.25-3.597 1.95-2.398-.302 1.047-.602 2.246-.9 3.144-5.093 15.735-11.687 31.465-17.081 47.047-1.797 4.946-2.696 7.645-4.344 12.438-.3.75-.45 1.347-.602 1.5-.296.898-.296 2.843-1.046 3.293-.899 1.199-1.801 5.093-2.098 6.593-.3.75 0 .45-.3 1.051-.45.45-.75 1.496-1.048 1.946-.601 1.05-.3 3.445-1.05 3.894v.3c.148.302-.301.9-.45 1.2.45-1.648-.3-.75-.3.598-.297 2.847-.45-.297-.75 1.5-.149.898.453-.598.152.3 0 .297-.152.75-.45.899-.449.598-.152 1.2-.898 1.797-.601.75-.75 2.097-1.05 2.847-.598 1.348-.899 2.997-.75 3.145.152.152.152.3-.149.602-.148.449-.148 1.199-.45 1.046-.148-.148-.148 0 0 .301 0 .149-.148.598-.448 1.051-.75 1.047-1.649 3.895-1.2 3.445.149 0 .301 0 .301.297 0 .153-.152.301-.45.301-.3 0-.3 0-.3.602.3.898.149 1.796 0 2.097-.75.598.149-1.351-.3-1.05-.45.3-2.395 6.742-2.997 8.39-.597 2.246-2.097 4.344-2.246 6.89-.3 1.65-.75 3.15-1.348 3.598-.3.45-4.195 1.649-6.742 2.246-1.05.301-6.593 0-8.843-.449-1.047 0-9.586-1.496-9.137.301-.153.3-.301.45-.45.45-.449.3-1.5 1.796-1.05 2.398.152.898.3 2.546 1.199 2.996.148.148.3.3.45.597 1.796 2.996 3.445 2.848 8.09 2.996 5.394.153 7.042-.746 11.237-1.644.45-.3.899-.152 1.5-.453.45-.45 1.496-.45 1.047.3-.148 0-.75 2.547-.898 2.7-.301.297-.149.898-.301 1.195-.598 1.05-1.648 5.844-1.945 6.594-.301-.3-.602 2.398-.899 2.7-1.648 5.241-2.699 9.886-4.195 15.28-.75 2.246-.453 2.246-1.05 4.047-.9 2.098-1.2 5.543-1.798 8.54-.601 1.347 0 6.14.45 7.64 0 .75 2.996 3.746 4.043 4.195 1.05-.3 1.351-1.199.902-2.097-.3-1.2 0-4.793.297-5.993 2.547-14.984 7.043-30.265 11.988-44.8 12.734 1.5 17.68 2.398 30.113 3.445 8.242.45 13.188 1.648 17.23 0 .302 0 .153.601.454.601.148 0 .148 0 .148-.152 0-.297 1.348-.148 1.496.152 17.98.598 39.559 1.348 56.637-2.699.602-.449 1.5-.148 2.098-.597.449-.301.449-.301-.45-.301-.449 0-.75-.149-.898-.297-.148-.602-2.547.148-2.848.297-15.73 2.996-20.375 2.699-41.203 2.699-10.039-.152-25.918-1.05-34.011-2.25-.899-.148-.297-.148 6.144.3 4.945.45 15.133.598 15.434.302.297-.301 3.445-.153 4.043.148.3.148.449.148.449 0 6.894-.45 28.918.148 34.91-1.2-2.844-.148-9.738.602-12.586 0-.898-.75 8.692-.75 10.79-.898 2.245 0 2.847-.148 4.792-.449-20.676-.45-53.336.3-74.015-2.848-.747-.148-2.547-.296-4.043-.449-6.594-.597-9.29-1.047-8.692-1.347 5.844-2.246 15.582-6.293 21.727-9.891 16.332-8.54 30.863-17.68 45.847-26.969 8.239-5.543 19.176-13.633 26.97-19.777 3.745-3.297 7.491-7.043 10.788-9.887 9.137-7.941 16.48-17.23 20.824-27.422.45-.746.602-1.644.153-1.797-.301-.148-.301-.597 0-.75.148 0 1.347-3.445 1.496-4.492.152-.3.3-.601.45-.75.151-.148.3-1.199 0-1.05 0 0 0-.297.3-.899.148-.598.45-.898.598-1.047.152 0 .152-.152.152-.3 0-.45.297-1.048.598-1.497v1.348c2.097-4.195 2.097-15.734.898-19.93zM173.1 239.272c-.45.148.148-2.997.148-1.051 0 .601-.148 1.05-.148 1.05zm.75-6.145c-.152 1.5-.45 2.695-.45 1.2.15-1.2.598-5.395.45-1.2zm.898-6.145c-.152.454-.3 1.352-.449 1.95 0-.899.149-1.797.598-2.547zm.598-3.144c-.148.3-.148-.598 0-.45.152.15.152.301 0 .45zm4.496-14.832c-.3.746-.75.898-.45.148.15-.75.9-1.347.45-.148zm20.824 68.77c0-.298.153-.298.903-.15.746.302.898-.148 1.347-.148 0 .149.149.149.149 0 .148-.3.3-.3.601-.152.899.152 10.489 0 10.489.602-2.098 1.047-14.086 1.347-13.489-.153zm20.528-7.04h.3c.45.149-.449.149-.3 0zm-.149 1.196h.598c.45.152-.899.152-.598 0zm-.601-.598c-.297-.148.453-.45.453-.45.297.15-.453.45-.453.45zm-1.348 17.23c.152-.148.152-.3 0-.3 0-.45.45-.297.3.152-.148.148-.148.297-.148.45-.152.448-.601-.153-.152-.302zm-.75 0c.3 0 .3.149 0 .301-.148.149-.148-.3 0-.3zm-.598 2.098c.149 0 .149.3 0 .45-.148.3-.148-.598 0-.45zm-7.34 33.863c-.152.149-.152-1.199 0-.601.149.3.297.601 0 .601zm0-.902c-.152 0-.152-1.496 0-.898.149.3.297.75 0 .898zm.747-5.992c-.149.45-.297 2.547-.45 3.445 0-.898.153-3.594.45-3.894.152-.149.152 0 0 .449zm.3-1.945c-.148.449-.148-.454 0-.301v.3zm.301-1.801c.149-.899.45-.899.149 0-.149.75-.45 1.05-.149 0zm1.946 7.941c0-.148 1.648-10.039 1.648-6.441-.598 1.199-1.195 7.941-1.648 6.441zm3.746-15.433c-.45 1.949-.899 6.445-1.946 7.793-.449-.301.45-2.696.598-3.446.602-1.347.75-3.445 1.2-4.644.3-.153.3-.153.148.297zm.152-1.047v-.301c.148 0 .148.152 0 .3zm.45-.75c-.153.148-.153.148-.153-.149 0-.601.3-.152.152.149zm3.894-13.336c-.149.152-.149.3-.149.152.149-.152.149-1.05.297-1.2.45 0 .152.75-.148 1.048zm1.797-10.489c-4.344 13.336-7.192 22.778-10.336 36.56-.45 2.25-.899 4.944-1.2 7.042-.148 1.05-.148 1.2-.3.898-.149-8.39 2.547-16.93 4.644-25.02 1.5-5.694 3.297-11.835 5.246-17.23.598-1.05.746-4.347 1.946-4.195 1.05 0 .3.75 0 1.945zm43.453 1.5c0-.148.148-.148.297-.148.3.297-.45.297-.297.148zm35.808-3.296c.45 0 .45.449 0 .449-.449 0-.449-.45 0-.45zm-.75.152c.301-.152.301.297 0 .297-.148 0-.148-.149 0-.297zm-2.398 0c1.05 0 1.8.148 1.8.148-.898.301-6.144 0-1.8-.148zm-29.965.45c0-.153.602-.153.602.148 0 0-.75.148-.602-.149zm-1.047-.153c0-.149.149-.149.297 0 .3.152-.598.152-.297 0zm-2.398-.297c.3 0 .3.297 0 .297-.45 0-.301-.297 0-.297zm-2.696-.152c.149 0 .45.449.149.449-.149 0-.301-.297-.149-.45zm-1.5-.149c.149 0 .301.45.149.3-.297.15-.297-.3-.149-.3zm-5.246-.3h.453c.297.148-.75.148-.453 0zm-6.14.75c1.047.148 2.996 0 3.746.3 0 .297-1.801.297-3.746 0-1.797-.3-1.797-.45 0-.3zm-1.95-1.5h.45c.3.152-.598.152-.45 0zm-1.347 1.199c.148-.149 1.5.152.3 0h-.3zm-1.2-.149s-2.097 0-1.945-.152c0-.149 1.797 0 1.946.152zm-4.496-.601h.454c.449.152-.75.152-.454 0zm-1.347 0h.75c.449.152-1.2.152-.75 0zm-4.492-.747c.297.149-.453.149-.301 0h.3zm-.903-1.199h.45c.453.149-.747.149-.45 0zm91.996-156.422c.301 0 0 .149-.597.149-2.7-.149-.899-.899.597-.149zm-9.136-3.148c0-.148.297 0 .449 0 .297.148-.75.148-.45 0zm-14.836-.3h1.199c.898.152-1.95 0-1.2 0zm-52.29 15.734c.15-.153.15-.153.301 0 .45.148-.453.148-.3 0zm-30.566 19.175c.301-.148.602-.297.75-.297.149 0 0 .149-.3.45-.75.449-.899.449-.45-.153zm-.898.903c.148-.153.3-.301.3-.153.149.153-.75.45-.3.153zm-24.422 25.918c.148 0 0 .3-.3.75-1.65 1.797-.302-.598.3-.75zm-4.797 6.445c.3-.152.152.297 0 .297-.297 0-.297-.149 0-.297zm-.746 2.996s0 .297-.152.297c0 .45 0-.45.152-.297zm-.75-.45c.148.298-.602.45-.45.598 0 .45-.3.45-.448.149.148-.297.75-.899.898-.746zm-1.348 1.348c.297-.449.45 0 .149.301-.301.297-.45.149-.149-.3zm-4.047 13.184c-.3.45-.148-.148 0-.297.301-.453.149.149 0 .297zm.899-1.945c-.149.148-.297.449-.297.449-.152-.152.746-1.5.297-.45zm1.648-3.149c-.597.899-.75 1.95-1.347 2.246 0-.449 3.144-5.992 1.347-2.246zm.602-6.144c0 .3-.3.453-.3 0 .148-.45.448-.45.3 0zm18.277-17.68c-1.648 1.5.75-1.195.75-.898 0 .152-.3.449-.75.898zm1.797-1.797c-.297.153-.297-.3 0-.3.152 0 .152.152 0 .3zm.602-.597c-.153.148-.45.296-.301 0 0-.301.45-.301.3 0zm3.593-3.747c-.296.45-2.546 2.547-2.546 2.399 0-.152 1.05-1.2 1.949-2.098.449-.3.75-.453.597-.3zm4.348-3.894c-.3.297-.601.45-.75.45-.3-.153 1.797-1.65.75-.45zm1.797-1.8c-.75.898-1.2.898-.45 0 .75-.75 1.348-.9.45 0zm1.348-1.048c-.45.149-.301-.3 0-.3.3 0 .3.148 0 .3zm1.199-1.05c-.149.3-.75.601-.75.449-.149 0 .75-.746.75-.45zm.75-.598c-.301.148-.301.148-.301 0 0-.45.75-.45.3 0zm3.297-2.547c-.153.148-.301.297-.301.148-.602.149.45-.449.3-.148zm1.945-1.648c-.598.597-.598 0-.297-.149.149 0 .297 0 .297-.152 0-.149 1.348-1.047 1.5-1.047.3 0-.898 1.047-1.5 1.348zm13.934-9.59c-.149.148-.149-.301 0-.301.3 0 .3.152 0 .3zm28.468-15.582c-22.472 8.39-40.902 20.675-58.734 37.906-7.488 6.894-16.18 18.578-22.023 27.57 1.949-4.644 7.64-12.136 9.89-15.133 1.047-1.648 2.395-2.398 2.547-3.746.148 0 .898-.601.898-.898.297-.602 7.34-7.793 8.391-9.442-4.644 4.196-12.437 13.036-15.582 17.231-4.644 7.191-4.496 5.695-.45.152.9-1.351 1.497-2.398 2.845-3.898.75-.899 1.351-1.649 1.351-1.797 0-.45-.3-.598-.453-.148-.746.597.453-1.95.602-.75.148.75.3-.301.75-.602.148-.148.296-.297.148-.297-.3 0-.3.45-.598.297-.601.152.45-.898.598-.598.45.45.75-1.949 1.2-1.199-.15.899 7.042-7.492 7.34-7.492 2.698-2.844 5.694-5.094 8.39-8.09.152-.3.898-.45 1.351-.898 4.344-3.746 9.137-7.641 13.934-10.938 1.047-.75.898-.898 2.098-1.5.449-.297.746-.598.597-.598 0-.148.45-.449 1.051-.75 2.246-.898 3.742-2.246 5.094-2.996.898-.3 1.347-1.046 2.394-1.347 2.547-1.2 3.746-2.246 5.696-3.446.3 0 1.199-.449 1.5-.601.898-.45 1.945-.899 3.445-1.797 3.746-1.95 2.695-1.348 5.543-2.547 4.496-1.797 9.59-4.496 14.383-5.695 8.09-3.145 15.734-5.543 25.172-6.89 8.39-1.2 21.277-1.348 28.617.448-16.63-1.347-37.008-.898-52.442 6.891-1.648.902-1.648.75-2.547 1.2-.296.152-.296.152-.148.448.3.45-.898 1.2-2.848 1.95zm47.496-9.89c-7.043-.45-17.828.75-25.77 2.698-3.296.75-3.745.899-7.64 2.098-2.097.598-2.699.75-2.699.45.45-.75 1.5-.302 2.25-.9 1.496-.75 3.445-1.347 6.293-2.097 8.39-2.398 23.523-3.598 30.863-2.848 2.399.301 2.848.45 2.547.598-.148.152-3.894.152-5.844 0zm2.098 1.198h-.148c.148-.148.75 0 .148 0zm-38.355 4.196c0 .3-.149.3-.45.3-1.05 0 .45-1.05.45-.3zm-10.938 10.34c.3-.602 1.496-3.446 1.348-2.098.148.75-2.696 4.496-1.348 2.097zm-1.648 2.398c.75-.75.449-.152 0 .297-.598.601-.598.3 0-.297zm.148 17.828c0 .3-.148.598-.148.598-.149 0-.149-.297 0-.746.3-.75.449-.75.148.148zm-.45 1.2c0 .3.153.448.302.148.449-.301.3.3 0 .3-.45.301-.45.301-.45-.3.149-.598.149-.598.149-.149zm-5.093-10.49c-.148.15-.148 0-.148-.148 0-.601.297-.152.148.149zm3.598-5.245c-.602.45-2.25 3.297-2.547 3.898-3 3.297 3.293-6.144 2.547-3.898zm.746-1.047c-.297.598-.45.598-.45.45-.296-.15 1.051-2.098 1.051-1.5 0 .452-.3.3-.601 1.05zm.3 18.879c0 .3-.148.598-.3.75-.746.746.453-2.7.3-.75zm-.449-3.895c0-.75.149 0 0 .297v-.297zm-.898 2.844c.148-.297.598-2.394.898-2.098-.449 1.801-1.347 4.196-2.097 6.293-.149.301-1.95 5.996-2.098 4.946 1.05-2.246 2.399-6.89 3.297-9.14zm.45 2.7c0 1.199-.9 2.394-1.2 3.445-.148.3-.148.3-.148-.149.3-1.05.75-2.25 1.347-3.297zm-1.65 5.093c-.3.75-.597 1.348-.597.898 0-.449.899-2.546.598-.898zm-3.745 6.145c.3-1.801.898-1.95.3-.301-.3.597-.3.597-.3.3zm-1.348 3.593c.149-.148.45-1.648.75-1.797.149.149-.601 2.098-.75 2.098-.148 0-.148-.152 0-.3zm-1.2 3.746c0-.75.15 0 0 .149v-.149zm-.597 1.5c.297-.601.149.747 0 .598-.3 0-.3-.148 0-.598zm-.601 1.645c0-.45.449-1.195.3-.45 0 .302-.597 1.352-.3.45zm-2.395 6.293v.601c-.152.598-.152-.898 0-.601zm-.601 1.5c.148.148.148.3 0 .45-.149.448-.149-.599 0-.45zm-.45 1.648v.45c-.148.3-.148-.598 0-.45zm-1.797 8.391c.149.148.149.3 0 .45-.152.448-.152-.598 0-.45zm-.3-3.598c.148.153.148.301 0 .45v-.45zm-.75 2.25c1.05-2.25.152.899-.149.899-.148 0-.148 0 .149-.899zm-4.344 11.985c.3-.149 0 .75-.149.75-.152 0 0-.598.149-.75zm-1.348 3.746c.149-.301.297-.598.45-.598.148 0 0-1.05.3-1.05.746-.598-1.351 3.894-.75 1.648zm-3.297 9.441c.598-.3-.601 2.246-.601 1.496 0-.148.453-1.496.601-1.496zm-2.996 8.39c.297-1.5 1.348-2.097.45-.3-.45 1.2-1.348 3.445-.45.3zm-9.14 23.52c.148-.898 1.347-3.894 1.05-2.097 0 .152-1.351 3.597-1.05 2.097zm.148 4.196c.45 0 .602.75-.148.152-.149-.152-.149-.152.148-.152zm-1.047-1.797c1.047-3.297.598.3.149.898-.45.899-.45.602-.149-.898zm-.75 2.699c0-.3 0-.602.149-.75.3-.602.453.598.152.75-.3.297-.3.297-.3 0zm.301 3.445c0 .598-.45.598-.3 0 .148-.449.3-.449.3 0zm-2.25 12.434c-.598 0 .152-.149.3 0h-.3zm.602-11.984c.148-.75.75-2.547.898-2.399 0 .45-.598 1.797-.75 2.25-.297.598-.297.598-.148.149zm.148 3.445c-.297-.3.152-.3.3 0 .15.3-.148.45-.3 0zm.3 5.246c-1.198 0 .15-1.2.302-.902.148.3.296.902-.301.902zm1.348-4.797c-.3 0-.75-.45-.597-.45.449-.148.75-1.796.898-2.097.899-2.847 2.246-7.043 3.297-9.887 1.649-4.195 3.297-11.84 5.543-15.433.598-.45.598-1.649 1.047-2.399.45-.75.3-1.199.602-1.496.449-.152 0-1.648.449-1.351.449.152.449-1.348.75-1.797.449-.45.148-1.496.449-1.797.297.148.598-.45.148-.45-.148 0-.3 0-.3-.152.152-1.195 1.8-3.292 2.097-4.644.301-.45.153-1.348.602-1.797.148-.148.3-.45.3-.598.45-1.199.45-.3 1.348-3.597.297-1.047 2.395-5.692 1.496-5.242-.746.148.75-1.5.75-1.801.149-.899.602-.45.899-1.649.75-1.797 1.5-3.746 1.949-5.39.45-1.5 2.695-5.547 1.648-5.395-.3-.152.45-.75.297-1.05 0-.297.301-.45.301-.149.75-1.2 2.098-4.344 2.25-5.844-.152-.597.297-.148.297-.898 0-.602.75-1.649 1.2-1.649 0 0 0-.148-.302-.3-.449-.149-.449-.149 0-.301.153 0 .45-.149.45-.45.152-1.046 1.05-2.695 1.351-3.593.149-.3.297-.45.297-.45.45.301 0-1.648.45-1.347.3 0 .3-.152.3-.45 0-.6.45-.3.3-.75-.148-.448.45-.3.302-.75-.153-.75 1.945-3.745.297-3.597-.598.3-.747-1.047-.297-.45 0 .153.297.153.297.153.449 0 1.5-1.199 1.648-1.8 0-.297.3-.598.3-.747.15 0 .302-.152.302-.449 0-.152 0-.3-.153-.3-.297.449 0-1.2.153-.602.148.152.296-.149.449-.598 0-.45.449-1.348.75-2.098.746-1.347.898-1.949.297-1.5-.149.153-.149.153-.149 0 .3-.597.899-.746 1.047-1.496.3-.75.45-1.05.3-.898-.148 0-.3 0-.448-.152-.301-.297-.149-.747.148-.45.152.602.602.301.602-.148 0-.75 0-1.2.3-1.649.149-.148.149-.3 0-.449-.152 0-.152-.148 0-.148.297-.3.746-1.649.598-1.95-.148-.597.898 0 .598-.75-.149-.898.449-1.347.601-2.847 0-.746.301-1.195.45-1.496 0-.3.3-1.05.449-1.05.3 0 .3.75 0 .898 0 0-.149.601-.149 1.199-.152 1.199-.449 1.5-.601 2.398 0 .598-.45 1.797-.75 1.797 0 0-.149 0 0 .152.152.297-.297 1.047-.598.899-.148 0-.148.148-.148.3 0 0 .148.45.148.9-.148 2.843-2.098 6.589-3.148 9.585-.899 2.848-1.348 4.047-2.547 7.195-2.996 7.938-6.14 15.88-8.84 23.672-2.996 7.34-5.543 15.281-8.39 23.223-1.348 3.746-2.247 6.293-3.294 8.242-.75 1.348-1.05 3.145-1.5 4.793-.449 1.797-2.398 6.293-2.695 7.64-1.648 4.196-4.195 12.887-6.445 17.68-.149.153-.45.301-.45.301zm32.364-83.902c-.301.898-1.047 2.695-1.348 3.593-.45 0 .899-2.847 1.047-3.593 0-.301.453-.75.3 0zm-1.649 4.043c0 .449-.597.75-.148-.149.148-.3.148-.152.148.149zm-.597 1.648c-.45.75-.899 3.149-1.2 2.848-.148 0 2.098-5.844 1.2-2.848zm0 2.246c-.153.45-.153-.597 0-.297v.297zm-4.645 10.192c-.152.449-.152-.45 0-.301v.3zm-2.547 6.89c0 .149-.152 1.051-.449 1.2-.152 0 0-.75.297-1.2.152-.3.152-.3.152 0zm-1.5 4.645c-1.347 3.746-3.594 10.637-4.496 12.586-.297.75-.598 1.05-.598.597.45-1.644 2.098-5.691 2.547-7.191 1.2-3.746 2.547-7.34 3.446-9.29.152 0-.45 2.099-.899 3.298zm-5.691 15.433c0 .301-.153.899-.301.75-.3-.449.45-1.5.598-2.097 0-.153 0-.301.152-.301.598 0-.602 1.348-.45 1.648zm-1.95 5.692c-.148.3-.148 1.648-.597 1.648-.453 0 0-.75 0-.898.297-.45.898-3.297 1.496-3.297 0 .152-.3 1.2-.898 2.547zm-1.796 4.945c-.153.75-.301-.3 0-.3.148 0 .148.152 0 .3zm-.602 1.95c-.148.449-.148-.9 0-.45v.45zm-1.347 3.593c-.301.152-.149-.898 0-.297v.297zm-1.2 3.746c0-.449.45.153.153.301 0 0-.153-.148-.153-.3zm0 1.051c-.148.75-1.047.75-.449.297.3 0 .149-.598.45-.746.152 0 .152.148 0 .449zm-2.695 6.742c0 .297-.3.598-.3.149-.15-.301.3-.45.3-.149zm-1.5 3.297c0-.152.602-1.648.602-.602 0 .301-.602 1.348-.602.602zm-.45 6.89c.302 0-.3.598-.448.45-.149 0 .3-.598.449-.45zm-.597 1.2c0 .148 0 .3-.152.598-.297.601 0-1.047.152-.598zm113.121-70.121c-10.637 11.836-13.187 13.933-24.422 22.926-7.941 5.691-17.382 13.035-23.824 16.777-9.14 6.144-20.226 12.437-29.367 17.98-2.395 1.051-5.395 2.7-7.64 4.047-4.048 1.95-7.641 3.446-11.239 5.395-4.344 1.945-10.187 4.644-14.98 6.293-.45.297-2.547 1.199-3.149 1.199-.3 0-.3-.453 0-.75.3-1.2.602-2.098 2.547-2.25.602 0 .898-.746 1.348-.746 1.05-.3 3.297-1.352 4.347-1.649.598-.449 1.496-.3 1.496-.898 0-.3 0-.3.301-.152.149 0 .598-.149 1.05-.297.599-.453 1.196-.301 1.645-.602.153-.3.903-.148 1.051-.449 2.246-1.348 5.094-2.398 7.492-3.746 3.594-1.649 1.2-1.348-.152-.45 0 .15-.598.15-1.195.301-1.051-.152-1.352.297-1.95.297 0 0 .149-.148.598-.297.75-.449 1.352-1.05.903-1.05-.454 0-2.098.898-2.551.75-1.645.449-.297 1.199-2.844 1.949-1.5.598-3.898 1.348-4.945 1.945-.149.153-.75.301-1.051.301 1.05-.898 5.394-2.246 6.445-3.297-1.199.152-5.246 1.95-6.144 2.25-.301.149-1.649.598-2.996 1.047-1.95.598-2.696 1.348-3.446 1.348-.152-.149 1.649-4.793 1.946-5.993 0-.148.902-2.695 1.5-4.496.449-1.496 1.047-2.394 1.5-3.746 1.047-2.394 1.347-3.593 2.394-6.59.45-1.949 4.047-9.441 3.899-10.039.898-2.847 2.843-7.492 3.742-10.488 3.449-9.289 7.492-20.078 10.937-28.918 4.946-12.734 11.39-29.516 14.985-42.851 1.199-3.747 2.996-10.04 3.445-14.383.3-2.246 2.547-7.64 1.648-9.442-1.046-1.496.899-1.347 1.649-1.797 1.5-.449 4.496-1.796 6.144-2.097 16.782-4.946 36.559-7.34 53.188-.598.898.598 4.945 1.797 5.996 2.246 0 .301.898.149.898.45 0 0 .297.3.598.601 3.746 2.547 9.59 6.89 11.387 11.387 4.195 8.39 3.597 19.625.898 28.015-5.39 18.73-22.472 33.563-36.258 45.25-4.945 4.793-10.789 8.989-15.882 12.438-.598.45-6.141 3.445-5.692 4.644.149.297 1.348-.75 1.496-.601a.32.32 0 0 0 .301-.3c1.05-.45 2.399-1.946 3.895-2.696.3-.301.3-.301.152.148-1.95 1.95-.152 2.25.297.45 0-.149 0-.149.3-.149.75 0 .75 0 .602-.3-.3-.15-.152-.15.149 0 .449 0 .898-.298.75-.598-.153-.149.746-.899 1.046-.899.602-.45 1.348-1.5 2.399-1.648.45-.149 1.496-1.5 1.95-1.649.745-.75 3.593-1.949 4.19-2.996.301-.601.454-.75 1.2-.601.75 0 2.398-.598 2.398-.899 0-.148 0-.297-.148-.297-.45 0 0-.601.597-.75.602-.152.602-.898.899-1.05 1.95-.598 1.95-2.098 4.047-2.395 2.097-2.098 5.242-4.195 7.492-6.895 1.797-1.496 3.297-2.695 8.39-8.09 1.497-1.796 1.649-1.648 2.547-3.148.297 0 0-.45.297-.297.301 0 .301-.601.602-.601.3 0 .898-.899 1.047-1.496.152-.45.152-.45.449-.45.3.149.602 0 .902-.75.899-1.648 1.645-2.246 2.395-3.746 1.347-1.5.898-1.199 1.199-1.949.75-.297 2.996-5.242 3.598-6.293.449-.148 1.047-1.496 1.047-1.797-.149-.449.3-.148.3-.597 0-.153 0-.301.149-.301 0 0 .3-.301.449-.598.3-.453.3-.601.45-.3.448 1.046-1.196 3.894-1.497 4.343-2.996 6.895-7.344 12.734-12.586 18.43zm-109.824 67.722h.297c.3.153-.45.153-.297 0zm1.945-.597c.602 0 0 .449-.148.148-.152 0 0-.148.148-.148zm10.04-2.547v.148c-.75-.3-.75-.597.148-1.047.902-.453.902-.453.3.149-.3.3-.449.598-.449.75zm111.921-92.746v.75c0 .449-.148 1.047-.297 1.347-.898 1.2.149-1.648.297-2.097zm-2.097 7.34c.152.3-.297-.297-.297.3-.153.45-.75 1.2-.75 1.649-.149.148-.149.45-.301.45-.75 0 .45-1.798.898-2.849.899-2.246.899-2.097 1.051-1.945.3.297-.601 1.797-.601 2.395zm-5.543 9.14c-.75 1.2-2.848 3.297-.45-.148 2.098-3.149 2.399-3.598 3.149-4.797 1.047-1.348-.75 2.098-.75 1.95-.301.148-.45.898-.602 1.198-.898.899-1.347 1.649-1.347 1.797zm.601-.148s0 .148-.152.3c-.45 0 0-.6.152-.3zm-3.597 4.043c0 .3-.45.3-.301 0 .152-.45.449-.45.3 0zm-1.649 2.25c0 .449-.598 0 0-.75.45-.598.602-.598.602-.149 0 .297 0 .45-.153.297-.148-.148-.597.45-.449.602zm-.598.3c0 .149-.152.297-.3.297-.45 0 .449-.597.3-.296zm-.75 2.547c-.148.297-.148.149-.3-.152-.149-.148.3-.148.3.152zm-.898-.601c-.3.152-.152.75-.45.75-.6 0 1.048-1.5.45-.75zm-1.05 1.2s-.298.3-.45.597c-1.2 1.199.3-.899.45-.598zm-5.243 4.644c0 .3-.602.148-.152-.149 0 0 .152 0 .152.149zm-1.5 1.347c0 .153 0 .301-.148.301-.45 0 .148-.598.148-.3zm-.45.45c-.3.75-2.097 2.097-2.695 2.699-.3.597-.601.75-.601.449 0-.3 2.547-2.7 3.297-3.148zm-3.593 3.597c0 .301-.902.149-.152-.148.152 0 .152 0 .152.148zm-1.2 1.2s-.152.148-.3.148c-.45-.149.3-.75.3-.149zm-1.347.898c-.152-.149.598-.602.598-.45.148.15-.598.75-.598.45zm-5.097 4.496c-.45.45-.747.297-.149-.152.45-.45.75-.297.149.152zm-13.184 10.336c-.149.3-1.047.152-.3-.149.151 0 .3 0 .3.149zm46-40.754c-.3.152-.152-.45 0-.297.297 0 .148.149 0 .297zm1.047-2.246c-.45.598-.45 1.496-.899 1.496 0-.297 1.047-2.395 1.2-2.547.449-.45.296.152-.301 1.05zm.75-1.5c-.899 0 .449-1.496.3-.45 0 .153-.152.301-.3.45zm1.648-6.293c-.449.45-.3 1.8-.449 2.098-.152 0-.45 1.949-.75 1.648 0-.148 0-.598.148-1.047.45-.898.45-2.848.899-3.445.45-.45.45-.153.152.746zm.598-9.738c-1.348 7.043-.149-1.649 0-4.496.152-2.247.3-2.844.45-1.497.151.899 0 2.848-.45 5.993zm.3-13.633c-.75-.301-.449-1.5-1.05-3.446-.598-3.296-2.695-6.894-3.293-9.14v.148c0 .153.148.45.45.45.296.3.148.75.448 1.05a.32.32 0 0 1 .297.297c0 .602 1.051 1.95.301.153-.45-1.348.148-1.348.45-.301.152.449 2.25 4.644 2.25 5.246-.153.746.898 5.242.148 5.543zM267.94 250.357c.3-.449 1.351-.597 1.5-.898.148-.3.597-.148.75-.45.449-1.05-1.95.9-2.547 1.048-1.2.449-.75 1.199.297.3zm51.094 28.77c-5.692.598 3.894.297 4.496-.3.75-.45-1.95.148-4.496.3zM252.358 258.6c-1.348-.153-1.496 1.046-.149.296.45-.296.45-.296.149-.296zm.601-.153c.149 0 1.649-.898 1.496-.898-.148-.149-2.246.449-1.496.898zm35.36-21.125c-.301 0-1.348.899-1.348 1.2 0 0-.152.148-.3.148-.302 0-1.048.601-1.2.898 0 .153 1.797-.898 2.7-1.496.296-.3.448-.75.148-.75zm-79.262-72.367c.75-.45 5.395-4.797 5.246-4.945-1.2 1.05-4.344 3.445-5.246 4.945zm35.512-26.82c-1.348.601-3.149 1.199-3.895 2.547.149 0 .598-.301 1.195-.598 1.2-.75 1.352-.3 2.25-1.2.75-.6.899-.3 1.649-.898.598-.601 0-.449-1.2.149zm-18.73 12.285c-2.548 1.95-4.942 3.746-6.59 5.246-.153-.152-1.95 1.648-2.547 2.098-.75.75-.153.297 2.546-1.801 3.594-2.996 5.391-4.043 7.489-5.992 0-.149-.45.152-.899.449zm12.585-8.688c0 .149-.75.598-.75.746.3 0 1.649-.898 1.649-1.046.152-.149-.598 0-.899.3zm22.774-11.988c-1.496.75-5.391 2.399-8.239 4.047-1.5.75-4.047 1.797-5.093 2.547 0 .3-.602.148-.602.45-.297.597 1.5-.602 1.8-.75 1.497-.75 2.845-1.349 4.794-2.4 2.097-.449 3.746-1.796 6.144-2.695 1.797-.898 2.246-1.05 3.293-1.5 0-.148-1.945.153-2.097.301zm-28.618 15.883c-1.347 1.496 1.649-.899 1.5-.899 0-.3-1.05.297-1.5.899zm-.746.598c-.152 0-4.496 2.847-4.797 3.449.602 0 3.446-2.399 4.497-3 .3-.149.597-.45.3-.45zm0 0"/></svg>