<svg xmlns="http://www.w3.org/2000/svg" xmlns:xlink="http://www.w3.org/1999/xlink" width="500" zoomAndPan="magnify" viewBox="0 0 375 374.999991" height="500" preserveAspectRatio="xMidYMid meet" version="1.0"><defs><g/></defs><g fill="rgb(0%, 0%, 0%)" fill-opacity="1"><g transform="translate(35.244601, 233.176092)"><g><path d="M 176.378906 -173.335938 C 176.378906 -173.996094 175.582031 -176.246094 175.1875 -176.378906 C 175.1875 -176.378906 175.054688 -176.507812 175.054688 -176.773438 C 174.789062 -177.566406 173.601562 -178.625 172.277344 -179.550781 C 170.558594 -181.003906 166.859375 -182.988281 165.007812 -183.382812 C 152.710938 -188.542969 129.835938 -186.160156 117.671875 -184.574219 C 116.746094 -184.308594 117.539062 -184.179688 118.996094 -184.308594 C 120.183594 -184.441406 121.640625 -184.308594 120.976562 -184.574219 C 120.582031 -184.707031 122.695312 -184.839844 124.679688 -184.839844 C 126.796875 -184.839844 124.679688 -184.972656 124.417969 -185.105469 C 124.546875 -185.234375 126.929688 -185.234375 128.910156 -185.367188 C 130.101562 -185.367188 130.761719 -185.367188 130.367188 -185.367188 C 128.910156 -185.5 129.835938 -185.632812 131.554688 -185.632812 C 134.464844 -185.632812 132.746094 -185.898438 136.578125 -185.898438 C 138.429688 -185.898438 140.019531 -186.027344 140.148438 -186.027344 C 140.414062 -186.160156 140.414062 -186.160156 140.28125 -185.898438 C 140.019531 -185.765625 140.546875 -185.765625 145.304688 -185.632812 C 153.636719 -185.5 155.882812 -185.234375 162.625 -183.515625 C 169.238281 -181.136719 162.757812 -183.121094 159.980469 -183.515625 C 156.941406 -184.308594 152.578125 -184.574219 149.273438 -184.839844 C 135.390625 -185.105469 125.605469 -184.308594 113.441406 -182.460938 C 100.089844 -180.210938 88.054688 -177.832031 75.363281 -174.394531 C 72.585938 -173.601562 70.207031 -172.808594 67.5625 -172.410156 C 65.578125 -171.75 62.671875 -170.824219 60.820312 -170.296875 C 60.160156 -170.03125 60.027344 -169.898438 59.101562 -169.765625 C 58.308594 -169.765625 57.25 -169.503906 54.207031 -168.445312 C 49.976562 -166.988281 48.390625 -166.460938 48.125 -166.195312 C 46.539062 -165.402344 44.953125 -165.535156 42.707031 -164.34375 C 39.003906 -162.890625 36.625 -162.625 32.921875 -161.171875 C 30.675781 -160.378906 28.824219 -159.851562 26.839844 -158.792969 C 26.3125 -158.792969 23.269531 -157.074219 23.136719 -157.734375 C 23.269531 -158 23.800781 -157.867188 24.0625 -158.261719 C 24.722656 -158.660156 25.121094 -158.660156 25.648438 -158.792969 C 25.78125 -158.792969 25.914062 -158.925781 25.78125 -159.058594 C 25.648438 -159.1875 27.105469 -159.320312 26.972656 -159.453125 C 26.972656 -159.453125 27.105469 -159.585938 27.238281 -159.585938 C 27.5 -159.585938 27.367188 -159.851562 27.765625 -159.851562 C 28.425781 -160.113281 30.277344 -161.039062 31.070312 -161.304688 C 31.863281 -161.4375 33.980469 -162.625 31.601562 -161.832031 C 28.292969 -160.644531 24.59375 -159.320312 21.417969 -158 C 19.832031 -157.207031 20.363281 -158.261719 18.90625 -157.339844 C 18.378906 -156.941406 18.113281 -157.074219 17.585938 -156.808594 C 17.1875 -156.542969 16.921875 -156.675781 16.660156 -156.414062 C 16.527344 -156.414062 16.394531 -156.28125 16.394531 -156.28125 C 16.261719 -156.28125 15.46875 -156.015625 14.542969 -155.488281 C 8.726562 -152.84375 7.007812 -151.917969 6.214844 -151.257812 C 5.15625 -150.59375 4.628906 -149.800781 3.304688 -149.800781 C 3.039062 -149.800781 2.910156 -149.667969 2.644531 -149.40625 C 2.246094 -148.742188 1.71875 -148.214844 1.453125 -147.6875 C 1.453125 -147.421875 0.792969 -146.230469 0.527344 -145.835938 C 0 -144.777344 0.660156 -144.910156 0.660156 -143.851562 C 0.527344 -143.058594 0.792969 -143.191406 1.191406 -142.53125 C 1.320312 -142.132812 1.585938 -141.867188 2.246094 -141.605469 C 5.949219 -140.546875 10.3125 -141.867188 15.335938 -142.660156 C 20.363281 -143.585938 25.914062 -144.910156 30.542969 -146.363281 C 34.113281 -147.289062 38.210938 -148.480469 41.515625 -149.667969 C 47.996094 -151.257812 55.398438 -154.296875 62.140625 -155.488281 C 62.671875 -155.621094 63.597656 -155.75 66.371094 -156.148438 C 70.734375 -156.675781 71.53125 -156.941406 71.53125 -157.734375 C 71.53125 -157.867188 71.792969 -158.261719 72.585938 -159.058594 C 73.511719 -159.71875 74.835938 -162.890625 73.378906 -161.832031 C 72.058594 -160.90625 70.472656 -160.90625 68.621094 -160.777344 C 53.8125 -159.058594 40.324219 -153.105469 26.046875 -150.332031 C 20.890625 -149.273438 15.46875 -147.949219 9.785156 -147.554688 C 11.503906 -148.742188 15.734375 -150.332031 17.71875 -151.386719 C 21.285156 -153.238281 24.460938 -154.5625 28.164062 -156.148438 C 29.484375 -156.808594 30.410156 -156.941406 31.730469 -157.46875 C 32.128906 -157.601562 33.054688 -157.46875 34.113281 -158.132812 C 38.34375 -159.71875 41.78125 -160.777344 45.878906 -162.625 C 50.769531 -163.816406 55.398438 -165.402344 60.421875 -166.988281 C 62.804688 -167.519531 64.523438 -168.046875 67.828125 -169.105469 C 71 -170.164062 78.40625 -171.617188 80.125 -172.410156 C 85.015625 -173.734375 89.90625 -174.660156 95.0625 -175.847656 C 95.328125 -175.847656 94.933594 -175.054688 94.402344 -173.996094 C 93.875 -172.941406 93.34375 -171.882812 90.964844 -167.253906 C 88.585938 -162.496094 88.1875 -161.570312 86.46875 -156.675781 C 85.410156 -154.164062 84.488281 -151.257812 83.5625 -148.742188 C 83.429688 -148.480469 83.691406 -148.347656 83.957031 -148.480469 C 84.222656 -148.613281 84.222656 -148.613281 84.089844 -148.347656 C 83.691406 -147.289062 83.824219 -147.15625 82.636719 -144.777344 C 72.71875 -119.65625 62.804688 -94.007812 55.003906 -67.828125 C 51.035156 -55.003906 47.464844 -41.121094 45.878906 -27.898438 C 45.21875 -21.15625 45.085938 -13.355469 45.878906 -8.066406 C 46.011719 -6.347656 47.203125 -5.554688 47.863281 -4.230469 C 47.996094 -3.835938 48.125 -2.910156 48.65625 -2.777344 C 48.789062 -2.777344 49.050781 -2.511719 49.183594 -2.378906 C 49.449219 -2.246094 49.847656 -1.851562 50.375 -1.71875 C 51.300781 -1.320312 50.902344 -0.925781 51.695312 -1.058594 C 52.621094 -1.191406 53.019531 -0.265625 53.945312 -1.320312 C 55.796875 -2.777344 58.441406 -5.816406 59.101562 -7.800781 C 60.160156 -10.179688 60.953125 -13.484375 61.214844 -15.734375 C 61.347656 -16.261719 61.746094 -18.773438 61.085938 -17.980469 C 60.953125 -17.453125 61.746094 -22.609375 62.140625 -24.0625 C 62.273438 -24.59375 62.273438 -24.59375 62.273438 -23.800781 C 62.140625 -22.875 62.007812 -22.34375 61.746094 -20.890625 C 61.613281 -20.097656 61.480469 -19.4375 61.746094 -19.4375 C 62.273438 -20.363281 62.671875 -22.875 62.804688 -23.535156 C 63.464844 -25.78125 63.597656 -26.3125 61.878906 -27.765625 C 58.703125 -27.765625 59.101562 -27.632812 58.441406 -24.988281 C 57.648438 -21.683594 56.984375 -18.378906 56.058594 -15.734375 C 55.132812 -13.089844 53.414062 -8.726562 51.695312 -6.875 C 50.902344 -9.652344 51.828125 -18.90625 52.09375 -23.402344 C 53.152344 -34.773438 55.53125 -45.484375 58.570312 -56.722656 C 58.703125 -57.25 58.703125 -57.382812 58.570312 -57.648438 C 58.441406 -58.042969 58.570312 -58.441406 59.367188 -60.421875 C 60.160156 -62.804688 60.6875 -65.578125 61.347656 -68.089844 C 61.480469 -69.28125 61.613281 -69.015625 61.878906 -70.207031 C 62.40625 -71.660156 62.40625 -72.585938 63.066406 -74.042969 C 63.597656 -75.761719 64.523438 -78.273438 64.785156 -79.726562 C 64.785156 -80.125 65.578125 -81.710938 65.578125 -82.105469 C 66.503906 -84.355469 67.429688 -87.394531 68.089844 -89.773438 C 68.355469 -90.964844 68.753906 -90.964844 69.015625 -92.023438 C 69.414062 -93.210938 70.472656 -96.253906 70.734375 -96.914062 C 72.585938 -102.46875 74.835938 -108.019531 76.816406 -113.574219 C 77.082031 -114.234375 77.742188 -115.953125 78.140625 -116.878906 C 78.535156 -118.070312 79.59375 -119.921875 79.726562 -120.976562 C 79.992188 -121.375 80.386719 -122.566406 80.386719 -122.828125 C 80.386719 -123.09375 81.050781 -124.019531 81.050781 -124.417969 C 81.3125 -125.210938 81.84375 -127.058594 82.371094 -127.722656 C 83.296875 -129.96875 83.429688 -130.761719 84.75 -133.40625 C 86.207031 -137.242188 87.925781 -141.738281 89.773438 -145.96875 C 91.230469 -149.007812 92.289062 -151.652344 93.476562 -154.5625 C 95.460938 -158.527344 96.519531 -161.570312 98.105469 -165.140625 C 98.898438 -168.972656 102.996094 -172.808594 101.011719 -176.90625 C 105.375 -177.832031 111.589844 -178.890625 115.558594 -179.550781 C 117.410156 -179.683594 121.507812 -180.34375 122.566406 -180.476562 C 123.621094 -180.609375 127.324219 -180.871094 127.589844 -181.269531 C 129.835938 -181.402344 134.730469 -181.269531 140.019531 -181.796875 C 146.230469 -182.195312 148.347656 -181.796875 153.238281 -181.402344 C 153.503906 -181.269531 159.71875 -181.136719 159.980469 -181.003906 C 160.511719 -180.609375 162.625 -180.210938 163.421875 -179.945312 C 166.859375 -179.023438 171.222656 -177.832031 173.734375 -174.789062 C 175.054688 -172.941406 173.734375 -168.707031 172.941406 -167.121094 C 172.015625 -164.609375 169.898438 -163.023438 168.707031 -160.511719 C 168.578125 -159.980469 167.386719 -158.261719 166.859375 -157.601562 C 166.195312 -156.941406 166.59375 -156.675781 166.859375 -157.074219 C 168.179688 -157.601562 173.070312 -162.757812 173.996094 -163.816406 C 175.453125 -165.535156 177.171875 -170.824219 176.378906 -173.335938 Z M 5.816406 -144.644531 C 5.683594 -144.644531 5.421875 -144.910156 5.683594 -144.910156 C 5.816406 -144.910156 5.816406 -144.644531 5.816406 -144.644531 Z M 7.535156 -144.644531 C 6.742188 -144.644531 7.535156 -144.777344 7.800781 -144.644531 C 8.066406 -144.644531 7.933594 -144.644531 7.535156 -144.644531 Z M 21.816406 -147.023438 C 21.417969 -147.023438 21.949219 -147.554688 22.082031 -147.15625 C 22.082031 -147.023438 21.949219 -147.023438 21.816406 -147.023438 Z M 23.667969 -147.421875 C 23.269531 -147.289062 22.34375 -147.023438 22.34375 -147.289062 C 22.476562 -147.554688 23.003906 -147.421875 23.402344 -147.554688 C 23.667969 -147.554688 23.800781 -147.554688 23.667969 -147.421875 Z M 36.625 -152.3125 C 37.019531 -152.3125 37.152344 -152.578125 37.417969 -152.710938 C 37.550781 -152.445312 36.886719 -152.179688 36.625 -152.179688 C 36.359375 -152.3125 36.359375 -152.3125 36.625 -152.3125 Z M 18.113281 -147.820312 C 23.269531 -148.613281 30.9375 -151.257812 36.226562 -152.179688 C 34.507812 -151.519531 31.601562 -150.726562 30.144531 -150.199219 C 28.824219 -149.40625 27.898438 -148.742188 25.648438 -148.347656 C 24.722656 -148.214844 23.003906 -147.820312 22.082031 -147.820312 C 21.550781 -147.820312 21.417969 -147.820312 21.285156 -147.554688 C 21.285156 -147.421875 21.15625 -147.554688 21.15625 -147.6875 C 20.625 -147.949219 16.792969 -147.421875 18.113281 -147.820312 Z M 10.179688 -145.175781 C 13.222656 -145.304688 18.246094 -146.628906 21.15625 -147.023438 C 20.757812 -146.496094 20.492188 -146.628906 18.246094 -146.097656 C 16 -145.570312 14.28125 -145.4375 11.898438 -144.910156 C 10.839844 -144.777344 8.066406 -144.644531 8.199219 -144.777344 C 8.59375 -144.910156 9.785156 -145.042969 10.179688 -145.175781 Z M 22.742188 -155.488281 C 22.210938 -155.488281 21.683594 -154.824219 21.15625 -154.695312 C 20.097656 -154.164062 19.964844 -154.296875 20.757812 -154.824219 C 21.417969 -155.222656 23.402344 -156.015625 22.742188 -155.488281 Z M 58.96875 -18.773438 C 59.234375 -20.097656 59.496094 -21.417969 59.234375 -21.816406 C 59.234375 -22.742188 60.160156 -24.988281 60.421875 -25.648438 C 61.085938 -27.238281 60.820312 -24.59375 60.554688 -24.328125 C 60.160156 -22.34375 59.761719 -20.492188 59.234375 -18.640625 C 58.703125 -16.792969 58.441406 -16.921875 58.96875 -18.773438 Z M 58.570312 -16.921875 C 58.570312 -16.921875 58.570312 -16.792969 58.570312 -16.660156 C 58.441406 -16.394531 58.441406 -17.054688 58.570312 -16.921875 Z M 83.824219 -144.777344 C 84.089844 -144.777344 84.089844 -144.511719 83.824219 -144.511719 C 83.691406 -144.511719 83.691406 -144.777344 83.824219 -144.777344 Z M 84.75 -141.738281 C 84.75 -141.867188 84.75 -141.867188 84.882812 -141.867188 C 85.28125 -141.867188 84.882812 -140.8125 84.355469 -139.886719 C 84.089844 -139.488281 83.957031 -139.488281 83.824219 -139.753906 C 83.5625 -140.148438 83.691406 -140.414062 83.957031 -140.148438 C 84.089844 -139.886719 84.222656 -139.886719 84.222656 -140.148438 C 84.488281 -140.679688 84.75 -140.941406 84.75 -141.738281 Z M 83.691406 -144.378906 C 83.691406 -144.378906 83.691406 -144.25 83.691406 -144.117188 C 83.691406 -143.585938 83.03125 -144.25 83.691406 -144.378906 Z M 83.429688 -138.429688 C 83.5625 -137.636719 82.371094 -138.695312 83.164062 -138.695312 C 83.429688 -138.695312 83.429688 -138.5625 83.429688 -138.429688 Z M 82.636719 -142.792969 C 82.898438 -143.457031 83.691406 -142.925781 83.03125 -142.792969 C 82.769531 -142.660156 82.898438 -142.132812 82.636719 -142.132812 C 82.371094 -142 82.371094 -142.265625 82.636719 -142.792969 Z M 82.769531 -137.636719 C 82.636719 -137.375 82.636719 -138.035156 82.769531 -137.902344 C 82.769531 -137.902344 82.769531 -137.769531 82.769531 -137.636719 Z M 82.503906 -136.316406 C 82.238281 -136.316406 82.371094 -135.65625 82.105469 -135.65625 C 81.578125 -135.785156 82.371094 -136.183594 82.371094 -136.449219 C 82.371094 -136.84375 82.898438 -136.578125 82.503906 -136.316406 Z M 81.179688 -134.597656 C 81.050781 -134.859375 81.050781 -134.859375 81.3125 -134.859375 C 81.578125 -134.859375 81.578125 -135.257812 81.84375 -135.390625 C 82.371094 -135.785156 81.179688 -133.273438 81.050781 -133.011719 C 80.917969 -132.480469 80.519531 -132.480469 80.785156 -132.878906 C 80.917969 -133.40625 81.050781 -133.273438 81.050781 -133.804688 C 81.050781 -134.332031 81.445312 -134.332031 81.179688 -134.597656 Z M 82.238281 -141.867188 C 82.371094 -141.738281 82.371094 -141.472656 82.238281 -141.339844 C 82.238281 -141.074219 82.238281 -142.132812 82.238281 -141.867188 Z M 81.445312 -139.488281 C 81.84375 -139.886719 81.710938 -141.339844 82.371094 -140.941406 C 82.503906 -140.8125 82.371094 -140.679688 82.105469 -140.148438 C 81.972656 -139.753906 81.710938 -139.355469 81.710938 -139.355469 C 81.445312 -139.355469 81.445312 -139.09375 81.578125 -138.960938 C 81.710938 -138.960938 81.710938 -138.695312 81.445312 -138.429688 C 81.3125 -138.035156 81.3125 -137.769531 81.3125 -137.769531 C 81.445312 -137.769531 81.050781 -137.503906 80.917969 -137.242188 C 80.253906 -136.316406 81.050781 -138.960938 81.445312 -139.488281 Z M 80.253906 -136.183594 C 80.386719 -136.578125 80.386719 -135.390625 80.253906 -135.390625 C 79.992188 -135.390625 79.992188 -135.917969 80.253906 -136.183594 Z M 79.59375 -134.859375 C 79.859375 -134.859375 79.859375 -134.332031 79.59375 -134.332031 C 79.460938 -134.332031 79.460938 -134.859375 79.59375 -134.859375 Z M 79.332031 -134.199219 C 79.332031 -134.199219 79.332031 -134.066406 79.332031 -133.9375 C 79.199219 -133.671875 79.199219 -134.464844 79.332031 -134.199219 Z M 78.535156 -127.324219 C 78.800781 -127.589844 78.40625 -127.722656 78.667969 -128.117188 C 79.066406 -128.382812 79.199219 -129.574219 79.460938 -129.96875 C 79.859375 -130.367188 80.386719 -132.480469 80.785156 -132.347656 C 80.785156 -132.21875 80.386719 -131.953125 80.519531 -131.6875 C 80.519531 -131.160156 79.460938 -128.648438 78.933594 -127.457031 C 78.667969 -126.929688 78.40625 -126.53125 78.40625 -126.53125 C 78.140625 -126.53125 78.273438 -127.058594 78.535156 -127.324219 Z M 78.140625 -125.078125 C 78.273438 -125.210938 78.273438 -124.679688 78.140625 -124.679688 C 78.140625 -124.679688 77.875 -125.078125 78.140625 -125.078125 Z M 75.761719 -119.390625 C 76.15625 -119.65625 76.6875 -121.640625 76.949219 -122.300781 C 77.214844 -122.300781 77.480469 -123.492188 77.609375 -123.621094 C 78.40625 -123.886719 76.6875 -120.316406 76.6875 -120.183594 C 76.6875 -119.921875 76.15625 -118.335938 75.761719 -119.128906 C 75.628906 -119.257812 75.628906 -119.390625 75.761719 -119.390625 Z M 74.042969 -114.765625 C 74.4375 -115.292969 74.835938 -118.070312 75.496094 -118.203125 C 76.023438 -117.9375 75.230469 -118.996094 76.023438 -118.597656 C 76.15625 -118.464844 76.023438 -118.335938 75.628906 -117.410156 C 75.230469 -116.484375 75.496094 -116.21875 75.097656 -115.691406 C 74.835938 -115.425781 74.96875 -115.027344 74.703125 -114.765625 C 74.304688 -114.367188 73.511719 -114.234375 74.042969 -114.765625 Z M 66.769531 -99.558594 C 67.167969 -99.558594 66.636719 -99.164062 66.636719 -99.425781 C 66.636719 -99.558594 66.769531 -99.558594 66.769531 -99.558594 Z M 60.953125 -77.609375 C 61.347656 -78.140625 61.480469 -79.332031 61.746094 -79.859375 C 62.539062 -81.972656 62.539062 -82.636719 63.464844 -85.148438 C 63.859375 -85.941406 63.992188 -87.132812 64.390625 -87.792969 C 64.652344 -88.1875 64.125 -87.792969 64.390625 -88.320312 C 64.523438 -88.453125 64.523438 -88.71875 64.523438 -88.980469 C 64.390625 -89.246094 64.390625 -89.246094 64.523438 -89.113281 C 64.785156 -88.71875 65.183594 -90.039062 65.183594 -90.171875 C 65.183594 -90.4375 65.578125 -91.230469 65.710938 -91.363281 C 65.84375 -91.757812 65.710938 -92.023438 65.976562 -92.550781 C 66.371094 -93.082031 65.976562 -93.742188 66.371094 -94.007812 C 66.769531 -94.136719 66.636719 -94.800781 66.769531 -94.933594 C 66.902344 -95.0625 67.296875 -96.652344 67.429688 -96.78125 C 67.5625 -96.914062 68.089844 -98.632812 68.089844 -99.164062 C 68.089844 -99.824219 68.753906 -100.089844 68.753906 -100.882812 C 68.753906 -101.011719 69.546875 -101.675781 69.28125 -101.9375 C 68.886719 -102.203125 69.546875 -102.203125 69.546875 -102.46875 C 69.546875 -102.734375 69.546875 -102.863281 69.679688 -102.863281 C 69.808594 -102.996094 69.546875 -103.261719 69.808594 -103.65625 C 70.734375 -105.507812 70.605469 -105.640625 71 -107.226562 C 71 -107.492188 71.132812 -107.625 71.265625 -107.625 C 71.265625 -107.625 71.398438 -107.625 71.398438 -107.757812 C 71.398438 -107.757812 71.398438 -108.019531 71.660156 -108.152344 C 71.925781 -108.417969 71.792969 -108.945312 72.058594 -109.078125 C 72.191406 -109.34375 72.058594 -109.476562 72.324219 -109.738281 C 72.324219 -109.871094 72.585938 -110.402344 72.71875 -110.929688 C 72.851562 -111.722656 73.25 -111.988281 73.25 -112.515625 C 73.25 -113.046875 73.378906 -112.382812 73.511719 -113.175781 C 73.25 -113.839844 74.304688 -114.5 74.304688 -113.707031 C 73.511719 -111.195312 72.191406 -107.757812 71.398438 -105.375 C 70.605469 -103.128906 69.148438 -100.75 68.753906 -98.765625 C 64.917969 -86.734375 60.289062 -74.171875 56.722656 -61.878906 C 56.058594 -59.628906 56.324219 -58.96875 55.664062 -57.117188 C 55.664062 -56.984375 55.398438 -56.058594 55.265625 -56.324219 C 55.132812 -56.589844 55.132812 -56.457031 55.132812 -56.324219 C 55.132812 -56.058594 55.003906 -55.664062 54.871094 -55.265625 C 54.472656 -54.738281 53.546875 -47.863281 53.285156 -51.035156 C 53.285156 -51.828125 53.546875 -51.433594 53.546875 -52.226562 C 53.8125 -53.019531 54.078125 -54.738281 54.339844 -55.398438 C 54.472656 -55.398438 54.738281 -55.925781 54.871094 -56.851562 C 54.871094 -56.984375 55.003906 -57.25 55.132812 -57.117188 C 55.398438 -57.25 55.265625 -58.175781 55.398438 -58.441406 C 55.664062 -59.234375 55.664062 -60.554688 55.925781 -61.347656 C 56.058594 -61.480469 56.457031 -62.804688 56.589844 -63.332031 C 56.589844 -63.859375 57.25 -64.652344 57.117188 -65.050781 C 57.117188 -65.183594 57.117188 -65.316406 57.25 -65.316406 C 57.648438 -65.449219 57.648438 -67.429688 57.910156 -68.222656 C 58.308594 -68.621094 58.308594 -69.679688 58.570312 -70.074219 C 58.835938 -71 59.101562 -71.265625 59.367188 -72.324219 C 59.628906 -73.910156 60.6875 -75.628906 60.820312 -77.214844 C 60.6875 -77.347656 60.820312 -77.480469 60.953125 -77.609375 Z M 53.285156 -44.027344 C 53.285156 -44.292969 53.8125 -43.765625 53.679688 -43.632812 C 53.546875 -43.5 53.285156 -43.894531 53.285156 -44.027344 Z M 53.285156 -42.96875 C 53.285156 -42.96875 53.152344 -43.5 53.285156 -43.5 C 53.414062 -43.5 53.414062 -42.96875 53.285156 -42.96875 Z M 53.546875 -44.820312 C 53.414062 -44.820312 53.414062 -45.351562 53.546875 -45.351562 C 53.679688 -45.351562 53.679688 -44.820312 53.546875 -44.820312 Z M 58.703125 -77.875 C 58.96875 -78.667969 59.101562 -78.007812 58.96875 -77.609375 C 58.835938 -77.082031 58.570312 -77.347656 58.703125 -77.875 Z M 58.175781 -75.890625 C 59.628906 -79.59375 57.910156 -73.25 57.25 -71.132812 C 52.488281 -54.472656 47.863281 -39.136719 46.671875 -21.683594 C 46.539062 -20.492188 46.671875 -17.847656 46.144531 -16.792969 C 46.144531 -37.152344 52.488281 -56.851562 58.175781 -75.890625 Z M 52.359375 -45.878906 C 51.960938 -42.839844 50.507812 -37.8125 49.976562 -34.375 C 49.976562 -34.113281 49.847656 -33.980469 49.714844 -34.113281 C 49.582031 -35.699219 49.976562 -35.566406 50.109375 -37.417969 C 50.242188 -38.34375 50.640625 -38.738281 50.640625 -39.929688 C 50.640625 -40.589844 50.902344 -40.589844 51.035156 -41.25 C 51.167969 -41.515625 51.300781 -41.78125 51.300781 -41.78125 C 51.433594 -41.78125 51.300781 -41.914062 51.167969 -42.046875 C 51.035156 -42.175781 51.035156 -42.308594 51.167969 -42.441406 C 51.300781 -42.574219 51.300781 -43.234375 51.433594 -43.5 C 51.828125 -44.425781 52.226562 -46.277344 52.488281 -47.730469 C 53.285156 -50.640625 53.546875 -47.332031 52.488281 -46.277344 C 52.359375 -46.144531 52.359375 -46.011719 52.359375 -45.878906 Z M 46.40625 -15.074219 C 46.011719 -15.203125 46.277344 -15.601562 46.144531 -16 C 46.011719 -16.527344 46.011719 -16.527344 46.144531 -16.527344 C 46.40625 -16.527344 46.539062 -15.074219 46.40625 -15.074219 Z M 46.671875 -12.429688 C 46.539062 -12.957031 46.40625 -14.808594 46.539062 -14.675781 C 46.804688 -14.410156 46.671875 -12.824219 46.804688 -12.429688 C 46.9375 -11.898438 46.804688 -11.898438 46.671875 -12.429688 Z M 46.9375 -9.386719 L 46.9375 -10.445312 C 46.9375 -9.652344 47.332031 -8.460938 47.332031 -7.800781 C 47.070312 -7.800781 46.9375 -8.460938 46.9375 -9.386719 Z M 47.863281 -6.082031 C 47.730469 -6.082031 47.203125 -7.402344 47.203125 -7.535156 C 47.203125 -7.667969 48.125 -6.082031 47.863281 -6.082031 Z M 48.390625 -23.929688 C 48.257812 -19.699219 47.996094 -7.800781 48.65625 -5.421875 C 47.332031 -5.289062 47.597656 -24.328125 48.390625 -23.929688 Z M 48.257812 -24.988281 C 48.390625 -27.238281 48.65625 -28.691406 49.050781 -31.070312 C 49.316406 -33.582031 49.449219 -33.980469 49.582031 -33.847656 C 49.714844 -33.714844 49.714844 -32.921875 49.582031 -32.921875 C 49.316406 -32.261719 49.449219 -29.351562 49.183594 -29.21875 C 49.050781 -29.21875 48.921875 -28.558594 48.921875 -27.765625 C 49.050781 -27.105469 48.125 -22.875 48.257812 -24.988281 Z M 49.976562 -8.199219 C 49.847656 -6.347656 49.714844 -5.554688 49.582031 -6.082031 C 49.316406 -8.066406 48.921875 -13.75 49.183594 -15.074219 C 49.714844 -15.867188 49.316406 -11.636719 49.582031 -11.765625 C 49.714844 -12.296875 49.847656 -11.765625 49.847656 -10.839844 C 49.847656 -9.519531 50.109375 -10.3125 49.976562 -8.199219 Z M 53.285156 -40.0625 C 52.621094 -38.078125 52.753906 -37.417969 52.09375 -34.773438 C 51.566406 -32.394531 51.300781 -30.410156 51.035156 -28.03125 C 50.769531 -27.632812 50.902344 -25.519531 50.507812 -25.78125 C 50.375 -25.914062 50.375 -25.914062 50.507812 -26.179688 C 50.769531 -26.574219 50.769531 -28.292969 50.640625 -28.03125 C 50.375 -28.03125 49.847656 -23.929688 50.242188 -24.855469 C 50.375 -25.519531 50.769531 -25.121094 50.507812 -24.59375 C 50.375 -24.195312 50.109375 -24.59375 49.976562 -24.195312 C 49.847656 -23.667969 49.714844 -21.550781 49.976562 -21.417969 C 50.109375 -21.417969 49.847656 -22.476562 50.109375 -22.742188 C 50.375 -23.003906 50.109375 -23.667969 50.242188 -23.929688 C 50.375 -24.0625 50.375 -23.929688 50.375 -23.402344 C 50.507812 -22.082031 49.976562 -21.285156 49.847656 -20.625 C 49.847656 -20.492188 49.976562 -20.492188 49.976562 -20.625 C 50.242188 -20.890625 49.976562 -13.089844 49.847656 -13.222656 C 49.714844 -13.089844 49.714844 -14.148438 49.714844 -15.46875 C 49.847656 -16.261719 49.582031 -16.261719 49.449219 -15.734375 C 49.449219 -15.601562 49.449219 -15.335938 49.316406 -15.335938 C 48.921875 -20.492188 50.242188 -30.542969 51.300781 -36.492188 C 51.828125 -39.796875 52.226562 -40.457031 52.753906 -42.046875 C 52.753906 -42.441406 53.019531 -42.839844 53.019531 -42.574219 C 53.152344 -41.914062 52.621094 -40.457031 52.753906 -39.929688 C 52.886719 -39.664062 53.019531 -39.664062 53.019531 -39.929688 C 53.019531 -40.324219 53.679688 -40.589844 53.285156 -40.0625 Z M 53.945312 -42.707031 C 53.8125 -42.707031 53.8125 -42.574219 53.8125 -42.574219 C 53.945312 -42.441406 53.679688 -41.25 53.546875 -41.25 C 53.285156 -41.382812 53.679688 -42.046875 53.546875 -42.308594 C 53.546875 -42.574219 53.679688 -42.839844 53.8125 -42.839844 C 53.945312 -42.707031 54.078125 -43.5 54.078125 -43.765625 C 54.078125 -43.5 54.207031 -42.707031 53.945312 -42.707031 Z M 54.078125 -43.765625 C 53.945312 -43.765625 53.945312 -44.027344 54.078125 -44.027344 C 54.339844 -44.027344 54.339844 -43.765625 54.078125 -43.765625 Z M 54.339844 -44.6875 C 54.339844 -44.6875 54.339844 -44.953125 54.339844 -45.21875 C 54.472656 -46.804688 54.605469 -44.953125 54.339844 -44.6875 Z M 54.738281 -46.277344 C 54.605469 -46.011719 54.339844 -46.011719 54.339844 -46.277344 C 54.339844 -46.40625 54.871094 -46.40625 54.738281 -46.277344 Z M 56.722656 -53.8125 C 56.722656 -53.679688 56.722656 -53.679688 56.589844 -53.945312 C 56.722656 -54.207031 56.851562 -53.945312 56.722656 -53.8125 Z M 57.25 -55.003906 C 56.324219 -53.285156 57.117188 -55.796875 57.382812 -56.058594 C 57.515625 -56.058594 57.515625 -55.796875 57.25 -55.003906 Z M 71.398438 -101.808594 C 70.605469 -100.351562 71 -100.21875 70.472656 -99.164062 C 69.679688 -97.839844 69.679688 -96.78125 68.886719 -94.800781 C 67.296875 -90.570312 68.089844 -91.492188 66.902344 -89.113281 C 65.976562 -86.867188 63.726562 -78.800781 63.066406 -77.082031 C 62.140625 -75.230469 61.347656 -71.792969 60.6875 -69.679688 C 60.160156 -68.089844 59.894531 -66.902344 59.496094 -65.183594 C 59.234375 -64.523438 59.234375 -64.390625 59.367188 -64.257812 C 59.496094 -64.125 59.496094 -64.125 59.367188 -64.125 C 59.101562 -64.125 59.367188 -63.464844 59.234375 -63.464844 C 58.308594 -62.539062 57.910156 -59.761719 57.382812 -58.308594 C 57.25 -57.382812 56.457031 -54.738281 56.191406 -53.414062 C 56.058594 -53.152344 55.925781 -51.960938 56.058594 -51.960938 C 56.191406 -51.960938 56.191406 -52.09375 56.191406 -52.359375 C 56.191406 -52.488281 56.324219 -52.488281 56.324219 -52.488281 C 56.457031 -52.226562 56.058594 -51.433594 55.925781 -51.433594 C 55.796875 -51.167969 55.796875 -49.847656 55.53125 -49.449219 C 55.003906 -48.523438 55.132812 -47.464844 54.472656 -46.539062 C 53.285156 -45.085938 53.546875 -45.613281 53.8125 -46.671875 C 55.003906 -50.507812 55.398438 -54.078125 56.589844 -58.175781 C 59.101562 -67.828125 62.140625 -76.554688 64.917969 -85.542969 C 66.109375 -89.378906 68.621094 -95.460938 69.808594 -99.824219 C 69.941406 -100.089844 71.132812 -103.261719 71.265625 -102.863281 C 71.53125 -102.863281 71.660156 -102.335938 71.398438 -101.808594 Z M 83.824219 -133.011719 C 83.691406 -132.878906 83.691406 -132.746094 83.5625 -132.613281 C 83.164062 -132.347656 84.089844 -133.804688 83.824219 -133.011719 Z M 85.148438 -139.355469 C 85.148438 -138.960938 84.882812 -139.09375 84.882812 -138.695312 C 84.882812 -138.296875 84.488281 -137.636719 84.488281 -137.242188 C 84.488281 -137.109375 84.355469 -136.976562 84.355469 -136.976562 C 84.089844 -136.976562 84.222656 -136.316406 84.089844 -136.183594 C 83.691406 -136.183594 84.089844 -134.859375 83.824219 -135.257812 C 83.691406 -135.390625 83.5625 -135.257812 83.296875 -134.730469 C 83.03125 -133.9375 82.769531 -133.671875 82.636719 -132.746094 C 82.238281 -131.421875 81.578125 -129.175781 80.785156 -127.457031 C 79.992188 -125.078125 79.066406 -123.09375 78.535156 -120.714844 C 77.875 -118.464844 76.421875 -115.691406 75.628906 -113.441406 C 74.4375 -110.402344 73.378906 -106.433594 71.53125 -103.128906 C 70.734375 -102.734375 73.511719 -109.210938 73.511719 -109.34375 C 75.097656 -113.839844 77.742188 -120.847656 79.332031 -125.078125 C 79.726562 -126.003906 80.125 -127.722656 80.785156 -128.648438 C 80.785156 -128.777344 80.917969 -129.441406 81.179688 -129.703125 C 81.710938 -130.761719 82.105469 -132.347656 82.503906 -133.40625 C 82.503906 -133.671875 84.089844 -136.710938 84.089844 -136.976562 C 83.957031 -137.109375 85.410156 -140.546875 85.148438 -139.355469 Z M 85.675781 -143.191406 C 85.542969 -142.925781 85.542969 -143.71875 85.675781 -143.457031 C 85.675781 -143.457031 85.675781 -143.191406 85.675781 -143.191406 Z M 85.675781 -148.742188 C 85.675781 -148.347656 85.410156 -145.703125 84.882812 -145.96875 C 84.882812 -145.96875 84.617188 -145.703125 84.488281 -145.4375 C 83.164062 -143.457031 85.410156 -148.742188 85.675781 -149.007812 Z M 86.601562 -145.4375 C 86.335938 -144.910156 86.207031 -144.777344 86.207031 -145.042969 C 86.207031 -145.570312 87.261719 -146.628906 86.601562 -145.4375 Z M 86.867188 -149.40625 C 86.734375 -149.140625 86.734375 -149.800781 86.734375 -149.667969 C 86.867188 -149.539062 86.867188 -149.539062 86.867188 -149.40625 Z M 87.261719 -141.867188 C 87.132812 -141.605469 87.132812 -142.53125 87.261719 -142.265625 C 87.261719 -142.132812 87.261719 -142 87.261719 -141.867188 Z M 87.660156 -147.820312 C 87.527344 -147.820312 87.527344 -148.082031 87.660156 -148.214844 C 87.925781 -148.347656 87.792969 -148.742188 88.054688 -148.875 C 88.453125 -149.140625 87.660156 -147.6875 87.660156 -147.820312 Z M 88.1875 -144.378906 C 87.925781 -144.25 87.925781 -144.777344 88.1875 -144.777344 C 88.320312 -144.777344 88.320312 -144.511719 88.1875 -144.378906 Z M 88.453125 -145.042969 C 88.1875 -144.910156 88.1875 -144.777344 88.1875 -145.042969 C 88.054688 -145.304688 88.71875 -145.4375 88.453125 -145.042969 Z M 88.320312 -152.050781 C 88.054688 -152.050781 88.1875 -152.445312 88.320312 -152.445312 C 88.585938 -152.578125 88.585938 -152.050781 88.320312 -152.050781 Z M 88.851562 -146.097656 C 88.71875 -146.097656 88.71875 -146.230469 88.851562 -146.363281 C 88.980469 -146.496094 88.980469 -146.097656 88.851562 -146.097656 Z M 88.980469 -146.761719 C 88.980469 -146.894531 89.511719 -147.949219 89.378906 -147.289062 C 89.378906 -147.15625 88.851562 -146.230469 88.980469 -146.761719 Z M 89.644531 -151.917969 C 89.378906 -151.519531 88.980469 -151.125 89.246094 -151.652344 C 89.378906 -151.917969 89.378906 -152.445312 89.511719 -152.578125 C 89.773438 -152.710938 89.90625 -152.578125 89.644531 -151.917969 Z M 89.773438 -152.84375 C 89.644531 -152.84375 89.246094 -152.976562 89.378906 -153.238281 C 89.644531 -153.898438 89.90625 -153.105469 89.773438 -152.84375 Z M 90.039062 -158.132812 C 90.039062 -158 90.039062 -158.132812 90.039062 -158.261719 C 90.039062 -158.792969 90.171875 -158.261719 90.039062 -158.132812 Z M 90.699219 -157.074219 C 90.832031 -157.339844 91.097656 -157.339844 91.097656 -157.207031 C 91.097656 -156.941406 90.4375 -156.28125 90.699219 -157.074219 Z M 91.097656 -150.726562 C 90.832031 -150.59375 90.964844 -151.125 91.097656 -151.125 C 91.363281 -151.125 91.230469 -150.859375 91.097656 -150.726562 Z M 165.800781 -182.0625 C 165.800781 -182.195312 165.933594 -182.195312 166.0625 -182.0625 C 166.328125 -182.0625 165.667969 -181.929688 165.800781 -182.0625 Z M 39.796875 -162.890625 C 39.796875 -162.757812 39.796875 -162.757812 39.664062 -162.625 C 38.476562 -162.230469 39.136719 -163.023438 39.796875 -162.890625 Z M 170.824219 -178.625 C 170.425781 -178.492188 169.898438 -178.625 168.3125 -179.285156 C 164.082031 -180.871094 165.269531 -180.476562 161.570312 -181.269531 C 145.96875 -184.179688 126.664062 -182.328125 110.269531 -179.816406 C 105.773438 -179.023438 105.507812 -179.023438 103.128906 -178.625 C 103.128906 -178.757812 103.261719 -178.757812 103.394531 -178.757812 C 103.65625 -178.757812 103.789062 -179.023438 103.394531 -179.152344 C 103.394531 -179.550781 97.179688 -177.171875 97.179688 -177.699219 C 97.046875 -177.832031 96.519531 -177.699219 96.519531 -177.433594 C 96.519531 -177.304688 95.328125 -176.90625 94.402344 -176.640625 C 84.488281 -174.527344 73.910156 -171.882812 64.257812 -168.839844 C 56.457031 -166.59375 50.242188 -164.875 41.648438 -161.832031 C 36.625 -160.113281 30.410156 -158 25.519531 -156.015625 C 25.386719 -155.882812 24.0625 -155.75 23.800781 -155.621094 C 23.003906 -155.882812 24.460938 -156.542969 25.121094 -156.808594 C 27.632812 -157.867188 29.351562 -158.527344 31.996094 -159.585938 C 35.300781 -160.777344 35.433594 -160.644531 36.492188 -161.703125 C 36.359375 -162.097656 37.417969 -162.097656 36.757812 -161.703125 C 36.625 -161.4375 36.625 -161.4375 37.019531 -161.4375 C 54.472656 -167.78125 70.605469 -172.542969 88.980469 -177.171875 C 92.816406 -178.492188 97.707031 -179.023438 101.144531 -179.816406 C 102.734375 -179.816406 111.195312 -181.535156 114.101562 -181.796875 C 129.308594 -183.78125 158 -187.21875 171.222656 -178.625 Z M 170.824219 -178.625 "/></g></g></g><g fill="rgb(0%, 0%, 0%)" fill-opacity="1"><g transform="translate(176.827654, 314.995897)"><g><path d="M 96.652344 -77.875 C 97.3125 -78.535156 97.707031 -78.40625 97.972656 -78.667969 C 97.839844 -79.199219 95.988281 -77.742188 95.59375 -77.609375 C 94.535156 -77.082031 95.328125 -76.816406 96.652344 -77.875 Z M 77.480469 -66.902344 C 78.007812 -67.296875 80.386719 -68.222656 80.125 -68.488281 C 79.59375 -68.488281 78.273438 -67.296875 77.742188 -67.429688 C 77.609375 -67.429688 77.214844 -67.296875 77.082031 -67.035156 C 76.023438 -66.503906 75.628906 -65.976562 77.480469 -66.902344 Z M 104.320312 -81.710938 C 104.320312 -82.105469 102.070312 -80.785156 101.808594 -80.253906 C 101.542969 -79.859375 100.75 -79.332031 100.484375 -79.460938 C 100.484375 -79.59375 100.351562 -79.460938 100.351562 -79.332031 C 100.089844 -78.933594 99.691406 -79.199219 99.425781 -78.667969 C 99.164062 -78.007812 98.632812 -78.273438 98.238281 -77.875 C 97.3125 -77.082031 95.460938 -76.6875 94.535156 -76.023438 C 94.136719 -75.890625 94.136719 -75.230469 93.742188 -75.230469 C 93.609375 -75.230469 93.34375 -75.097656 93.082031 -74.96875 C 92.417969 -74.703125 91.757812 -74.703125 91.363281 -74.042969 C 91.363281 -73.777344 90.304688 -73.25 90.699219 -72.984375 C 92.417969 -73.777344 99.425781 -78.140625 100.351562 -78.667969 C 101.542969 -79.460938 103.394531 -80.519531 104.453125 -81.445312 C 104.582031 -81.445312 104.582031 -81.578125 104.320312 -81.710938 Z M 108.550781 -84.617188 C 107.625 -83.824219 104.453125 -82.371094 105.246094 -81.972656 C 107.09375 -83.03125 107.492188 -83.5625 109.210938 -84.488281 C 110.796875 -85.410156 108.945312 -85.410156 108.550781 -84.617188 Z M 92.550781 -75.363281 C 92.550781 -75.230469 92.683594 -75.363281 92.816406 -75.496094 C 92.949219 -75.761719 94.007812 -76.289062 94.269531 -76.554688 C 94.269531 -77.082031 93.34375 -76.15625 92.550781 -76.023438 C 91.625 -75.761719 91.492188 -75.097656 90.964844 -74.835938 C 90.699219 -74.835938 89.511719 -74.171875 89.511719 -73.910156 C 89.246094 -73.644531 89.90625 -73.777344 90.171875 -74.042969 C 90.304688 -74.171875 90.4375 -74.304688 90.570312 -74.304688 C 90.699219 -74.304688 92.15625 -75.097656 92.417969 -75.363281 C 92.417969 -75.496094 92.550781 -75.496094 92.550781 -75.363281 Z M 88.980469 -72.324219 C 88.453125 -72.058594 88.054688 -72.324219 87.527344 -71.925781 C 87.394531 -71.660156 84.488281 -70.339844 83.691406 -69.546875 C 83.429688 -69.546875 81.84375 -68.621094 81.445312 -68.488281 C 80.917969 -68.222656 81.710938 -68.355469 81.578125 -67.960938 C 81.578125 -67.828125 81.050781 -67.828125 80.917969 -68.089844 C 80.785156 -68.355469 80.386719 -68.089844 80.785156 -67.828125 C 80.917969 -67.695312 80.917969 -67.695312 80.652344 -67.695312 C 79.460938 -67.695312 80.253906 -67.035156 79.460938 -67.167969 C 78.667969 -67.296875 77.082031 -65.84375 76.816406 -65.976562 C 76.554688 -65.976562 76.289062 -65.449219 75.890625 -65.449219 C 75.628906 -65.449219 75.496094 -65.449219 75.496094 -65.316406 C 75.496094 -65.183594 75.363281 -65.183594 75.230469 -65.183594 C 75.097656 -65.183594 75.097656 -65.050781 75.097656 -65.050781 C 75.097656 -64.917969 74.703125 -64.785156 74.304688 -64.652344 C 73.511719 -64.523438 73.511719 -64.125 72.984375 -63.859375 C 74.171875 -63.597656 74.570312 -63.992188 76.816406 -65.050781 C 79.992188 -66.636719 80.917969 -67.429688 83.824219 -69.015625 C 85.410156 -69.941406 87.660156 -71.265625 89.246094 -72.058594 C 89.644531 -72.191406 89.644531 -72.71875 88.980469 -72.324219 Z M 115.820312 -88.851562 C 116.085938 -88.851562 116.617188 -89.773438 116.878906 -89.773438 C 117.011719 -89.773438 117.011719 -89.90625 117.011719 -89.90625 C 117.144531 -90.699219 115.558594 -88.980469 115.820312 -88.851562 Z M 111.589844 -86.46875 C 111.457031 -86.46875 110.535156 -85.808594 110.136719 -85.410156 C 110.664062 -85.28125 112.515625 -86.46875 111.589844 -86.46875 Z M 113.707031 -87.792969 C 112.78125 -86.734375 114.367188 -87.792969 114.367188 -88.054688 C 114.367188 -88.320312 114.101562 -88.1875 113.707031 -87.792969 Z M 113.046875 -87.394531 C 112.914062 -87.261719 112.78125 -87.132812 112.648438 -87.132812 C 112.121094 -87.132812 111.722656 -85.941406 112.78125 -86.734375 C 113.046875 -86.867188 113.441406 -87.792969 113.046875 -87.394531 Z M 114.234375 -89.511719 C 113.972656 -89.511719 112.382812 -88.585938 111.988281 -88.054688 C 111.722656 -87.792969 111.457031 -87.660156 111.195312 -87.660156 C 110.402344 -87.660156 109.609375 -86.601562 108.683594 -86.207031 C 107.757812 -85.410156 108.152344 -85.410156 107.226562 -85.015625 C 106.300781 -84.617188 105.773438 -84.222656 105.773438 -83.957031 C 105.640625 -83.691406 106.171875 -83.691406 106.433594 -83.957031 C 107.492188 -84.75 111.195312 -87.132812 112.515625 -88.054688 C 113.046875 -88.1875 112.914062 -88.453125 113.308594 -88.585938 C 113.441406 -88.585938 114.5 -89.511719 114.234375 -89.511719 Z M 98.371094 -79.066406 C 98.632812 -79.199219 99.292969 -79.199219 99.292969 -79.460938 C 99.425781 -79.726562 99.957031 -79.460938 100.089844 -79.859375 C 100.351562 -80.125 102.070312 -81.050781 101.808594 -81.3125 C 101.675781 -81.445312 100.21875 -80.785156 100.21875 -80.519531 C 100.484375 -80.386719 97.3125 -78.800781 98.371094 -79.066406 Z M 171.089844 -161.964844 C 170.296875 -165.140625 168.839844 -170.824219 165.933594 -172.808594 C 165.535156 -173.203125 165.402344 -173.46875 164.34375 -174.660156 C 161.171875 -178.226562 158.132812 -180.742188 154.429688 -182.328125 C 150.59375 -184.308594 144.910156 -186.824219 140.414062 -187.351562 C 136.050781 -188.804688 141.074219 -187.746094 142.398438 -187.617188 C 145.175781 -187.351562 148.742188 -185.367188 150.992188 -184.441406 C 152.3125 -183.648438 152.84375 -183.515625 152.976562 -183.648438 C 151.785156 -185.234375 148.613281 -186.292969 146.628906 -187.21875 C 127.058594 -193.828125 105.113281 -191.054688 85.675781 -182.988281 C 55.925781 -171.882812 26.972656 -150.59375 11.503906 -122.695312 C 4.628906 -110.402344 0.398438 -94.800781 0.132812 -81.84375 C 0 -78.800781 0 -78.140625 0.398438 -77.480469 C 0.527344 -77.082031 0.792969 -74.835938 0.925781 -74.570312 C 1.71875 -69.941406 2.644531 -65.710938 4.628906 -61.878906 C 6.214844 -58.175781 11.105469 -52.09375 14.675781 -49.449219 C 15.203125 -48.921875 17.71875 -47.203125 17.980469 -47.730469 C 17.980469 -47.863281 18.246094 -47.863281 18.90625 -47.863281 C 20.230469 -47.464844 19.832031 -48.257812 19.171875 -48.65625 C 15.46875 -51.167969 9.386719 -56.457031 7.667969 -61.085938 C 3.171875 -70.734375 5.816406 -90.699219 9.121094 -101.410156 C 19.4375 -135.65625 49.316406 -160.378906 80.519531 -174.660156 C 82.371094 -175.582031 84.222656 -176.113281 85.808594 -176.90625 C 87.394531 -177.699219 86.074219 -176.113281 85.675781 -175.582031 C 85.148438 -174.789062 83.691406 -172.675781 83.5625 -172.410156 C 83.5625 -172.410156 78.667969 -164.875 78.667969 -164.875 C 71.132812 -153.636719 65.183594 -143.191406 59.496094 -130.761719 C 59.234375 -130.101562 59.101562 -129.835938 58.96875 -128.777344 C 58.96875 -127.324219 58.308594 -127.589844 58.96875 -126.136719 C 59.894531 -124.546875 60.027344 -124.679688 61.214844 -124.8125 C 61.613281 -124.679688 61.746094 -124.8125 61.746094 -124.945312 C 61.878906 -125.210938 63.199219 -126.796875 63.464844 -126.796875 C 64.785156 -128.117188 65.710938 -130.628906 66.636719 -132.347656 C 71.265625 -141.738281 76.816406 -151.125 82.769531 -159.980469 C 85.015625 -163.421875 84.75 -163.15625 84.488281 -162.097656 C 84.222656 -161.171875 83.957031 -160.113281 83.691406 -159.320312 C 79.199219 -145.4375 73.378906 -131.554688 68.621094 -117.804688 C 67.035156 -113.441406 66.242188 -111.0625 64.785156 -106.832031 C 64.523438 -106.171875 64.390625 -105.640625 64.257812 -105.507812 C 63.992188 -104.714844 63.992188 -102.996094 63.332031 -102.601562 C 62.539062 -101.542969 61.746094 -98.105469 61.480469 -96.78125 C 61.214844 -96.121094 61.480469 -96.386719 61.214844 -95.855469 C 60.820312 -95.460938 60.554688 -94.535156 60.289062 -94.136719 C 59.761719 -93.210938 60.027344 -91.097656 59.367188 -90.699219 C 59.367188 -90.699219 59.367188 -90.699219 59.367188 -90.4375 C 59.496094 -90.171875 59.101562 -89.644531 58.96875 -89.378906 C 59.367188 -90.832031 58.703125 -90.039062 58.703125 -88.851562 C 58.441406 -86.335938 58.308594 -89.113281 58.042969 -87.527344 C 57.910156 -86.734375 58.441406 -88.054688 58.175781 -87.261719 C 58.175781 -87 58.042969 -86.601562 57.777344 -86.46875 C 57.382812 -85.941406 57.648438 -85.410156 56.984375 -84.882812 C 56.457031 -84.222656 56.324219 -83.03125 56.058594 -82.371094 C 55.53125 -81.179688 55.265625 -79.726562 55.398438 -79.59375 C 55.53125 -79.460938 55.53125 -79.332031 55.265625 -79.066406 C 55.132812 -78.667969 55.132812 -78.007812 54.871094 -78.140625 C 54.738281 -78.273438 54.738281 -78.140625 54.871094 -77.875 C 54.871094 -77.742188 54.738281 -77.347656 54.472656 -76.949219 C 53.8125 -76.023438 53.019531 -73.511719 53.414062 -73.910156 C 53.546875 -73.910156 53.679688 -73.910156 53.679688 -73.644531 C 53.679688 -73.511719 53.546875 -73.378906 53.285156 -73.378906 C 53.019531 -73.378906 53.019531 -73.378906 53.019531 -72.851562 C 53.285156 -72.058594 53.152344 -71.265625 53.019531 -71 C 52.359375 -70.472656 53.152344 -72.191406 52.753906 -71.925781 C 52.359375 -71.660156 50.640625 -65.976562 50.109375 -64.523438 C 49.582031 -62.539062 48.257812 -60.6875 48.125 -58.441406 C 47.863281 -56.984375 47.464844 -55.664062 46.9375 -55.265625 C 46.671875 -54.871094 43.234375 -53.8125 40.988281 -53.285156 C 40.0625 -53.019531 35.167969 -53.285156 33.1875 -53.679688 C 32.261719 -53.679688 24.722656 -55.003906 25.121094 -53.414062 C 24.988281 -53.152344 24.855469 -53.019531 24.722656 -53.019531 C 24.328125 -52.753906 23.402344 -51.433594 23.800781 -50.902344 C 23.929688 -50.109375 24.0625 -48.65625 24.855469 -48.257812 C 24.988281 -48.125 25.121094 -47.996094 25.253906 -47.730469 C 26.839844 -45.085938 28.292969 -45.21875 32.394531 -45.085938 C 37.152344 -44.953125 38.605469 -45.746094 42.308594 -46.539062 C 42.707031 -46.804688 43.101562 -46.671875 43.632812 -46.9375 C 44.027344 -47.332031 44.953125 -47.332031 44.558594 -46.671875 C 44.425781 -46.671875 43.894531 -44.425781 43.765625 -44.292969 C 43.5 -44.027344 43.632812 -43.5 43.5 -43.234375 C 42.96875 -42.308594 42.046875 -38.078125 41.78125 -37.417969 C 41.515625 -37.683594 41.25 -35.300781 40.988281 -35.039062 C 39.53125 -30.410156 38.605469 -26.3125 37.285156 -21.550781 C 36.625 -19.566406 36.886719 -19.566406 36.359375 -17.980469 C 35.566406 -16.128906 35.300781 -13.089844 34.773438 -10.445312 C 34.246094 -9.253906 34.773438 -5.023438 35.167969 -3.703125 C 35.167969 -3.039062 37.8125 -0.398438 38.738281 0 C 39.664062 -0.265625 39.929688 -1.058594 39.53125 -1.851562 C 39.269531 -2.910156 39.53125 -6.082031 39.796875 -7.140625 C 42.046875 -20.363281 46.011719 -33.847656 50.375 -46.671875 C 61.613281 -45.351562 65.976562 -44.558594 76.949219 -43.632812 C 84.222656 -43.234375 88.585938 -42.175781 92.15625 -43.632812 C 92.417969 -43.632812 92.289062 -43.101562 92.550781 -43.101562 C 92.683594 -43.101562 92.683594 -43.101562 92.683594 -43.234375 C 92.683594 -43.5 93.875 -43.367188 94.007812 -43.101562 C 109.871094 -42.574219 128.910156 -41.914062 143.984375 -45.484375 C 144.511719 -45.878906 145.304688 -45.613281 145.835938 -46.011719 C 146.230469 -46.277344 146.230469 -46.277344 145.4375 -46.277344 C 145.042969 -46.277344 144.777344 -46.40625 144.644531 -46.539062 C 144.511719 -47.070312 142.398438 -46.40625 142.132812 -46.277344 C 128.25 -43.632812 124.152344 -43.894531 105.773438 -43.894531 C 96.914062 -44.027344 82.898438 -44.820312 75.761719 -45.878906 C 74.96875 -46.011719 75.496094 -46.011719 81.179688 -45.613281 C 85.542969 -45.21875 94.535156 -45.085938 94.800781 -45.351562 C 95.0625 -45.613281 97.839844 -45.484375 98.371094 -45.21875 C 98.632812 -45.085938 98.765625 -45.085938 98.765625 -45.21875 C 104.847656 -45.613281 124.285156 -45.085938 129.574219 -46.277344 C 127.058594 -46.40625 120.976562 -45.746094 118.464844 -46.277344 C 117.671875 -46.9375 126.136719 -46.9375 127.984375 -47.070312 C 129.96875 -47.070312 130.496094 -47.203125 132.21875 -47.464844 C 113.972656 -47.863281 85.148438 -47.203125 66.902344 -49.976562 C 66.242188 -50.109375 64.652344 -50.242188 63.332031 -50.375 C 57.515625 -50.902344 55.132812 -51.300781 55.664062 -51.566406 C 60.820312 -53.546875 69.414062 -57.117188 74.835938 -60.289062 C 89.246094 -67.828125 102.070312 -75.890625 115.292969 -84.089844 C 122.566406 -88.980469 132.21875 -96.121094 139.09375 -101.542969 C 142.398438 -104.453125 145.703125 -107.757812 148.613281 -110.269531 C 156.675781 -117.277344 163.15625 -125.472656 166.988281 -134.464844 C 167.386719 -135.125 167.519531 -135.917969 167.121094 -136.050781 C 166.859375 -136.183594 166.859375 -136.578125 167.121094 -136.710938 C 167.253906 -136.710938 168.3125 -139.753906 168.445312 -140.679688 C 168.578125 -140.941406 168.707031 -141.207031 168.839844 -141.339844 C 168.972656 -141.472656 169.105469 -142.398438 168.839844 -142.265625 C 168.839844 -142.265625 168.839844 -142.53125 169.105469 -143.058594 C 169.238281 -143.585938 169.503906 -143.851562 169.632812 -143.984375 C 169.765625 -143.984375 169.765625 -144.117188 169.765625 -144.25 C 169.765625 -144.644531 170.03125 -145.175781 170.296875 -145.570312 C 170.296875 -145.304688 170.296875 -144.644531 170.296875 -144.378906 C 172.144531 -148.082031 172.144531 -158.261719 171.089844 -161.964844 Z M 2.910156 -81.710938 C 2.511719 -81.578125 3.039062 -84.355469 3.039062 -82.636719 C 3.039062 -82.105469 2.910156 -81.710938 2.910156 -81.710938 Z M 3.570312 -87.132812 C 3.4375 -85.808594 3.171875 -84.75 3.171875 -86.074219 C 3.304688 -87.132812 3.703125 -90.832031 3.570312 -87.132812 Z M 4.363281 -92.550781 C 4.230469 -92.15625 4.097656 -91.363281 3.964844 -90.832031 C 3.964844 -91.625 4.097656 -92.417969 4.496094 -93.082031 Z M 4.890625 -95.328125 C 4.761719 -95.0625 4.761719 -95.855469 4.890625 -95.726562 C 5.023438 -95.59375 5.023438 -95.460938 4.890625 -95.328125 Z M 8.859375 -108.417969 C 8.59375 -107.757812 8.199219 -107.625 8.460938 -108.285156 C 8.59375 -108.945312 9.253906 -109.476562 8.859375 -108.417969 Z M 27.238281 -47.730469 C 27.238281 -47.996094 27.367188 -47.996094 28.03125 -47.863281 C 28.691406 -47.597656 28.824219 -47.996094 29.21875 -47.996094 C 29.21875 -47.863281 29.351562 -47.863281 29.351562 -47.996094 C 29.484375 -48.257812 29.617188 -48.257812 29.882812 -48.125 C 30.675781 -47.996094 39.136719 -48.125 39.136719 -47.597656 C 37.285156 -46.671875 26.707031 -46.40625 27.238281 -47.730469 Z M 45.351562 -53.945312 C 45.351562 -53.945312 45.484375 -53.945312 45.613281 -53.945312 C 46.011719 -53.8125 45.21875 -53.8125 45.351562 -53.945312 Z M 45.21875 -52.886719 C 45.351562 -52.886719 45.613281 -52.886719 45.746094 -52.886719 C 46.144531 -52.753906 44.953125 -52.753906 45.21875 -52.886719 Z M 44.6875 -53.414062 C 44.425781 -53.546875 45.085938 -53.8125 45.085938 -53.8125 C 45.351562 -53.679688 44.6875 -53.414062 44.6875 -53.414062 Z M 43.5 -38.210938 C 43.632812 -38.34375 43.632812 -38.476562 43.5 -38.476562 C 43.5 -38.871094 43.894531 -38.738281 43.765625 -38.34375 C 43.632812 -38.210938 43.632812 -38.078125 43.632812 -37.945312 C 43.5 -37.550781 43.101562 -38.078125 43.5 -38.210938 Z M 42.839844 -38.210938 C 43.101562 -38.210938 43.101562 -38.078125 42.839844 -37.945312 C 42.707031 -37.8125 42.707031 -38.210938 42.839844 -38.210938 Z M 42.308594 -36.359375 C 42.441406 -36.359375 42.441406 -36.09375 42.308594 -35.964844 C 42.175781 -35.699219 42.175781 -36.492188 42.308594 -36.359375 Z M 35.832031 -6.480469 C 35.699219 -6.347656 35.699219 -7.535156 35.832031 -7.007812 C 35.964844 -6.742188 36.09375 -6.480469 35.832031 -6.480469 Z M 35.832031 -7.273438 C 35.699219 -7.273438 35.699219 -8.59375 35.832031 -8.066406 C 35.964844 -7.800781 36.09375 -7.402344 35.832031 -7.273438 Z M 36.492188 -12.5625 C 36.359375 -12.164062 36.226562 -10.3125 36.09375 -9.519531 C 36.09375 -10.3125 36.226562 -12.691406 36.492188 -12.957031 C 36.625 -13.089844 36.625 -12.957031 36.492188 -12.5625 Z M 36.757812 -14.28125 C 36.625 -13.882812 36.625 -14.675781 36.757812 -14.542969 C 36.757812 -14.542969 36.757812 -14.410156 36.757812 -14.28125 Z M 37.019531 -15.867188 C 37.152344 -16.660156 37.417969 -16.660156 37.152344 -15.867188 C 37.019531 -15.203125 36.757812 -14.941406 37.019531 -15.867188 Z M 38.738281 -8.859375 C 38.738281 -8.992188 40.195312 -17.71875 40.195312 -14.542969 C 39.664062 -13.484375 39.136719 -7.535156 38.738281 -8.859375 Z M 42.046875 -22.476562 C 41.648438 -20.757812 41.25 -16.792969 40.324219 -15.601562 C 39.929688 -15.867188 40.722656 -17.980469 40.855469 -18.640625 C 41.382812 -19.832031 41.515625 -21.683594 41.914062 -22.742188 C 42.175781 -22.875 42.175781 -22.875 42.046875 -22.476562 Z M 42.175781 -23.402344 C 42.175781 -23.003906 42.175781 -23.929688 42.175781 -23.667969 C 42.308594 -23.667969 42.308594 -23.535156 42.175781 -23.402344 Z M 42.574219 -24.0625 C 42.441406 -23.929688 42.441406 -23.929688 42.441406 -24.195312 C 42.441406 -24.722656 42.707031 -24.328125 42.574219 -24.0625 Z M 46.011719 -35.832031 C 45.878906 -35.699219 45.878906 -35.566406 45.878906 -35.699219 C 46.011719 -35.832031 46.011719 -36.625 46.144531 -36.757812 C 46.539062 -36.757812 46.277344 -36.09375 46.011719 -35.832031 Z M 47.597656 -45.085938 C 43.765625 -33.320312 41.25 -24.988281 38.476562 -12.824219 C 38.078125 -10.839844 37.683594 -8.460938 37.417969 -6.609375 C 37.285156 -5.683594 37.285156 -5.554688 37.152344 -5.816406 C 37.019531 -13.222656 39.402344 -20.757812 41.25 -27.898438 C 42.574219 -32.921875 44.160156 -38.34375 45.878906 -43.101562 C 46.40625 -44.027344 46.539062 -46.9375 47.597656 -46.804688 C 48.523438 -46.804688 47.863281 -46.144531 47.597656 -45.085938 Z M 85.941406 -43.765625 C 85.941406 -43.894531 86.074219 -43.894531 86.207031 -43.894531 C 86.46875 -43.632812 85.808594 -43.632812 85.941406 -43.765625 Z M 117.539062 -46.671875 C 117.9375 -46.671875 117.9375 -46.277344 117.539062 -46.277344 C 117.144531 -46.277344 117.144531 -46.671875 117.539062 -46.671875 Z M 116.878906 -46.539062 C 117.144531 -46.671875 117.144531 -46.277344 116.878906 -46.277344 C 116.746094 -46.277344 116.746094 -46.40625 116.878906 -46.539062 Z M 114.765625 -46.539062 C 115.691406 -46.539062 116.351562 -46.40625 116.351562 -46.40625 C 115.558594 -46.144531 110.929688 -46.40625 114.765625 -46.539062 Z M 88.320312 -46.144531 C 88.320312 -46.277344 88.851562 -46.277344 88.851562 -46.011719 C 88.851562 -46.011719 88.1875 -45.878906 88.320312 -46.144531 Z M 87.394531 -46.277344 C 87.394531 -46.40625 87.527344 -46.40625 87.660156 -46.277344 C 87.925781 -46.144531 87.132812 -46.144531 87.394531 -46.277344 Z M 85.28125 -46.539062 C 85.542969 -46.539062 85.542969 -46.277344 85.28125 -46.277344 C 84.882812 -46.277344 85.015625 -46.539062 85.28125 -46.539062 Z M 82.898438 -46.671875 C 83.03125 -46.671875 83.296875 -46.277344 83.03125 -46.277344 C 82.898438 -46.277344 82.769531 -46.539062 82.898438 -46.671875 Z M 81.578125 -46.804688 C 81.710938 -46.804688 81.84375 -46.40625 81.710938 -46.539062 C 81.445312 -46.40625 81.445312 -46.804688 81.578125 -46.804688 Z M 76.949219 -47.070312 C 77.082031 -47.070312 77.214844 -47.070312 77.347656 -47.070312 C 77.609375 -46.9375 76.6875 -46.9375 76.949219 -47.070312 Z M 71.53125 -46.40625 C 72.453125 -46.277344 74.171875 -46.40625 74.835938 -46.144531 C 74.835938 -45.878906 73.25 -45.878906 71.53125 -46.144531 C 69.941406 -46.40625 69.941406 -46.539062 71.53125 -46.40625 Z M 69.808594 -47.730469 C 69.941406 -47.730469 70.074219 -47.730469 70.207031 -47.730469 C 70.472656 -47.597656 69.679688 -47.597656 69.808594 -47.730469 Z M 68.621094 -46.671875 C 68.753906 -46.804688 69.941406 -46.539062 68.886719 -46.671875 C 68.488281 -46.671875 68.355469 -46.671875 68.621094 -46.671875 Z M 67.5625 -46.804688 C 67.5625 -46.804688 65.710938 -46.804688 65.84375 -46.9375 C 65.84375 -47.070312 67.429688 -46.9375 67.5625 -46.804688 Z M 63.597656 -47.332031 C 63.597656 -47.332031 63.859375 -47.332031 63.992188 -47.332031 C 64.390625 -47.203125 63.332031 -47.203125 63.597656 -47.332031 Z M 62.40625 -47.332031 C 62.539062 -47.332031 62.804688 -47.332031 63.066406 -47.332031 C 63.464844 -47.203125 62.007812 -47.203125 62.40625 -47.332031 Z M 58.441406 -47.996094 C 58.703125 -47.863281 58.042969 -47.863281 58.175781 -47.996094 C 58.175781 -47.996094 58.308594 -47.996094 58.441406 -47.996094 Z M 57.648438 -49.050781 C 57.777344 -49.050781 57.910156 -49.050781 58.042969 -49.050781 C 58.441406 -48.921875 57.382812 -48.921875 57.648438 -49.050781 Z M 138.828125 -187.085938 C 139.09375 -187.085938 138.828125 -186.953125 138.296875 -186.953125 C 135.917969 -187.085938 137.503906 -187.746094 138.828125 -187.085938 Z M 130.761719 -189.863281 C 130.761719 -189.996094 131.027344 -189.863281 131.160156 -189.863281 C 131.421875 -189.730469 130.496094 -189.730469 130.761719 -189.863281 Z M 117.671875 -190.128906 C 117.9375 -190.128906 118.464844 -190.128906 118.730469 -190.128906 C 119.523438 -189.996094 117.011719 -190.128906 117.671875 -190.128906 Z M 71.53125 -176.246094 C 71.660156 -176.378906 71.660156 -176.378906 71.792969 -176.246094 C 72.191406 -176.113281 71.398438 -176.113281 71.53125 -176.246094 Z M 44.558594 -159.320312 C 44.820312 -159.453125 45.085938 -159.585938 45.21875 -159.585938 C 45.351562 -159.585938 45.21875 -159.453125 44.953125 -159.1875 C 44.292969 -158.792969 44.160156 -158.792969 44.558594 -159.320312 Z M 43.765625 -158.527344 C 43.894531 -158.660156 44.027344 -158.792969 44.027344 -158.660156 C 44.160156 -158.527344 43.367188 -158.261719 43.765625 -158.527344 Z M 22.210938 -135.65625 C 22.34375 -135.65625 22.210938 -135.390625 21.949219 -134.992188 C 20.492188 -133.40625 21.683594 -135.523438 22.210938 -135.65625 Z M 17.980469 -129.96875 C 18.246094 -130.101562 18.113281 -129.703125 17.980469 -129.703125 C 17.71875 -129.703125 17.71875 -129.835938 17.980469 -129.96875 Z M 17.320312 -127.324219 C 17.320312 -127.324219 17.320312 -127.058594 17.1875 -127.058594 C 17.1875 -126.664062 17.1875 -127.457031 17.320312 -127.324219 Z M 16.660156 -127.722656 C 16.792969 -127.457031 16.128906 -127.324219 16.261719 -127.191406 C 16.261719 -126.796875 16 -126.796875 15.867188 -127.058594 C 16 -127.324219 16.527344 -127.855469 16.660156 -127.722656 Z M 15.46875 -126.53125 C 15.734375 -126.929688 15.867188 -126.53125 15.601562 -126.265625 C 15.335938 -126.003906 15.203125 -126.136719 15.46875 -126.53125 Z M 11.898438 -114.894531 C 11.636719 -114.5 11.765625 -115.027344 11.898438 -115.160156 C 12.164062 -115.558594 12.03125 -115.027344 11.898438 -114.894531 Z M 12.691406 -116.617188 C 12.5625 -116.484375 12.429688 -116.21875 12.429688 -116.21875 C 12.296875 -116.351562 13.089844 -117.539062 12.691406 -116.617188 Z M 14.148438 -119.390625 C 13.617188 -118.597656 13.484375 -117.671875 12.957031 -117.410156 C 12.957031 -117.804688 15.734375 -122.695312 14.148438 -119.390625 Z M 14.675781 -124.8125 C 14.675781 -124.546875 14.410156 -124.417969 14.410156 -124.8125 C 14.542969 -125.210938 14.808594 -125.210938 14.675781 -124.8125 Z M 30.804688 -140.414062 C 29.351562 -139.09375 31.46875 -141.472656 31.46875 -141.207031 C 31.46875 -141.074219 31.203125 -140.8125 30.804688 -140.414062 Z M 32.394531 -142 C 32.128906 -141.867188 32.128906 -142.265625 32.394531 -142.265625 C 32.523438 -142.265625 32.523438 -142.132812 32.394531 -142 Z M 32.921875 -142.53125 C 32.789062 -142.398438 32.523438 -142.265625 32.65625 -142.53125 C 32.65625 -142.792969 33.054688 -142.792969 32.921875 -142.53125 Z M 36.09375 -145.835938 C 35.832031 -145.4375 33.847656 -143.585938 33.847656 -143.71875 C 33.847656 -143.851562 34.773438 -144.777344 35.566406 -145.570312 C 35.964844 -145.835938 36.226562 -145.96875 36.09375 -145.835938 Z M 39.929688 -149.273438 C 39.664062 -149.007812 39.402344 -148.875 39.269531 -148.875 C 39.003906 -149.007812 40.855469 -150.332031 39.929688 -149.273438 Z M 41.515625 -150.859375 C 40.855469 -150.066406 40.457031 -150.066406 41.121094 -150.859375 C 41.78125 -151.519531 42.308594 -151.652344 41.515625 -150.859375 Z M 42.707031 -151.785156 C 42.308594 -151.652344 42.441406 -152.050781 42.707031 -152.050781 C 42.96875 -152.050781 42.96875 -151.917969 42.707031 -151.785156 Z M 43.765625 -152.710938 C 43.632812 -152.445312 43.101562 -152.179688 43.101562 -152.3125 C 42.96875 -152.3125 43.765625 -152.976562 43.765625 -152.710938 Z M 44.425781 -153.238281 C 44.160156 -153.105469 44.160156 -153.105469 44.160156 -153.238281 C 44.160156 -153.636719 44.820312 -153.636719 44.425781 -153.238281 Z M 47.332031 -155.488281 C 47.203125 -155.355469 47.070312 -155.222656 47.070312 -155.355469 C 46.539062 -155.222656 47.464844 -155.75 47.332031 -155.488281 Z M 49.050781 -156.941406 C 48.523438 -156.414062 48.523438 -156.941406 48.789062 -157.074219 C 48.921875 -157.074219 49.050781 -157.074219 49.050781 -157.207031 C 49.050781 -157.339844 50.242188 -158.132812 50.375 -158.132812 C 50.640625 -158.132812 49.582031 -157.207031 49.050781 -156.941406 Z M 61.347656 -165.402344 C 61.214844 -165.269531 61.214844 -165.667969 61.347656 -165.667969 C 61.613281 -165.667969 61.613281 -165.535156 61.347656 -165.402344 Z M 86.46875 -179.152344 C 66.636719 -171.75 50.375 -160.90625 34.640625 -145.703125 C 28.03125 -139.621094 20.363281 -129.308594 15.203125 -121.375 C 16.921875 -125.472656 21.949219 -132.085938 23.929688 -134.730469 C 24.855469 -136.183594 26.046875 -136.84375 26.179688 -138.035156 C 26.3125 -138.035156 26.972656 -138.5625 26.972656 -138.828125 C 27.238281 -139.355469 33.449219 -145.703125 34.375 -147.15625 C 30.277344 -143.457031 23.402344 -135.65625 20.625 -131.953125 C 16.527344 -125.605469 16.660156 -126.929688 20.230469 -131.820312 C 21.023438 -133.011719 21.550781 -133.9375 22.742188 -135.257812 C 23.402344 -136.050781 23.929688 -136.710938 23.929688 -136.84375 C 23.929688 -137.242188 23.667969 -137.375 23.535156 -136.976562 C 22.875 -136.449219 23.929688 -138.695312 24.0625 -137.636719 C 24.195312 -136.976562 24.328125 -137.902344 24.722656 -138.167969 C 24.855469 -138.296875 24.988281 -138.429688 24.855469 -138.429688 C 24.59375 -138.429688 24.59375 -138.035156 24.328125 -138.167969 C 23.800781 -138.035156 24.722656 -138.960938 24.855469 -138.695312 C 25.253906 -138.296875 25.519531 -140.414062 25.914062 -139.753906 C 25.78125 -138.960938 32.128906 -146.363281 32.394531 -146.363281 C 34.773438 -148.875 37.417969 -150.859375 39.796875 -153.503906 C 39.929688 -153.769531 40.589844 -153.898438 40.988281 -154.296875 C 44.820312 -157.601562 49.050781 -161.039062 53.285156 -163.949219 C 54.207031 -164.609375 54.078125 -164.742188 55.132812 -165.269531 C 55.53125 -165.535156 55.796875 -165.800781 55.664062 -165.800781 C 55.664062 -165.933594 56.058594 -166.195312 56.589844 -166.460938 C 58.570312 -167.253906 59.894531 -168.445312 61.085938 -169.105469 C 61.878906 -169.371094 62.273438 -170.03125 63.199219 -170.296875 C 65.449219 -171.351562 66.503906 -172.277344 68.222656 -173.335938 C 68.488281 -173.335938 69.28125 -173.734375 69.546875 -173.863281 C 70.339844 -174.261719 71.265625 -174.660156 72.585938 -175.453125 C 75.890625 -177.171875 74.96875 -176.640625 77.480469 -177.699219 C 81.445312 -179.285156 85.941406 -181.664062 90.171875 -182.722656 C 97.3125 -185.5 104.054688 -187.617188 112.382812 -188.804688 C 119.789062 -189.863281 131.160156 -189.996094 137.636719 -188.410156 C 122.960938 -189.597656 104.980469 -189.203125 91.363281 -182.328125 C 89.90625 -181.535156 89.90625 -181.664062 89.113281 -181.269531 C 88.851562 -181.136719 88.851562 -181.136719 88.980469 -180.871094 C 89.246094 -180.476562 88.1875 -179.816406 86.46875 -179.152344 Z M 128.382812 -187.878906 C 122.167969 -188.277344 112.648438 -187.21875 105.640625 -185.5 C 102.734375 -184.839844 102.335938 -184.707031 98.898438 -183.648438 C 97.046875 -183.121094 96.519531 -182.988281 96.519531 -183.253906 C 96.914062 -183.914062 97.839844 -183.515625 98.5 -184.046875 C 99.824219 -184.707031 101.542969 -185.234375 104.054688 -185.898438 C 111.457031 -188.011719 124.8125 -189.070312 131.292969 -188.410156 C 133.40625 -188.144531 133.804688 -188.011719 133.539062 -187.878906 C 133.40625 -187.746094 130.101562 -187.746094 128.382812 -187.878906 Z M 130.234375 -186.824219 C 130.101562 -186.824219 129.96875 -186.824219 130.101562 -186.824219 C 130.234375 -186.953125 130.761719 -186.824219 130.234375 -186.824219 Z M 96.386719 -183.121094 C 96.386719 -182.855469 96.253906 -182.855469 95.988281 -182.855469 C 95.0625 -182.855469 96.386719 -183.78125 96.386719 -183.121094 Z M 86.734375 -173.996094 C 87 -174.527344 88.054688 -177.039062 87.925781 -175.847656 C 88.054688 -175.1875 85.542969 -171.882812 86.734375 -173.996094 Z M 85.28125 -171.882812 C 85.941406 -172.542969 85.675781 -172.015625 85.28125 -171.617188 C 84.75 -171.089844 84.75 -171.351562 85.28125 -171.882812 Z M 85.410156 -156.148438 C 85.410156 -155.882812 85.28125 -155.621094 85.28125 -155.621094 C 85.148438 -155.621094 85.148438 -155.882812 85.28125 -156.28125 C 85.542969 -156.941406 85.675781 -156.941406 85.410156 -156.148438 Z M 85.015625 -155.089844 C 85.015625 -154.824219 85.148438 -154.695312 85.28125 -154.957031 C 85.675781 -155.222656 85.542969 -154.695312 85.28125 -154.695312 C 84.882812 -154.429688 84.882812 -154.429688 84.882812 -154.957031 C 85.015625 -155.488281 85.015625 -155.488281 85.015625 -155.089844 Z M 80.519531 -164.34375 C 80.386719 -164.214844 80.386719 -164.34375 80.386719 -164.476562 C 80.386719 -165.007812 80.652344 -164.609375 80.519531 -164.34375 Z M 83.691406 -168.972656 C 83.164062 -168.578125 81.710938 -166.0625 81.445312 -165.535156 C 78.800781 -162.625 84.355469 -170.957031 83.691406 -168.972656 Z M 84.355469 -169.898438 C 84.089844 -169.371094 83.957031 -169.371094 83.957031 -169.503906 C 83.691406 -169.632812 84.882812 -171.351562 84.882812 -170.824219 C 84.882812 -170.425781 84.617188 -170.558594 84.355469 -169.898438 Z M 84.617188 -153.238281 C 84.617188 -152.976562 84.488281 -152.710938 84.355469 -152.578125 C 83.691406 -151.917969 84.75 -154.957031 84.617188 -153.238281 Z M 84.222656 -156.675781 C 84.222656 -157.339844 84.355469 -156.675781 84.222656 -156.414062 C 84.222656 -156.28125 84.222656 -156.414062 84.222656 -156.675781 Z M 83.429688 -154.164062 C 83.5625 -154.429688 83.957031 -156.28125 84.222656 -156.015625 C 83.824219 -154.429688 83.03125 -152.3125 82.371094 -150.460938 C 82.238281 -150.199219 80.652344 -145.175781 80.519531 -146.097656 C 81.445312 -148.082031 82.636719 -152.179688 83.429688 -154.164062 Z M 83.824219 -151.785156 C 83.824219 -150.726562 83.03125 -149.667969 82.769531 -148.742188 C 82.636719 -148.480469 82.636719 -148.480469 82.636719 -148.875 C 82.898438 -149.800781 83.296875 -150.859375 83.824219 -151.785156 Z M 82.371094 -147.289062 C 82.105469 -146.628906 81.84375 -146.097656 81.84375 -146.496094 C 81.84375 -146.894531 82.636719 -148.742188 82.371094 -147.289062 Z M 79.066406 -141.867188 C 79.332031 -143.457031 79.859375 -143.585938 79.332031 -142.132812 C 79.066406 -141.605469 79.066406 -141.605469 79.066406 -141.867188 Z M 77.875 -138.695312 C 78.007812 -138.828125 78.273438 -140.148438 78.535156 -140.28125 C 78.667969 -140.148438 78.007812 -138.429688 77.875 -138.429688 C 77.742188 -138.429688 77.742188 -138.5625 77.875 -138.695312 Z M 76.816406 -135.390625 C 76.816406 -136.050781 76.949219 -135.390625 76.816406 -135.257812 C 76.816406 -135.125 76.816406 -135.257812 76.816406 -135.390625 Z M 76.289062 -134.066406 C 76.554688 -134.597656 76.421875 -133.40625 76.289062 -133.539062 C 76.023438 -133.539062 76.023438 -133.671875 76.289062 -134.066406 Z M 75.761719 -132.613281 C 75.761719 -133.011719 76.15625 -133.671875 76.023438 -133.011719 C 76.023438 -132.746094 75.496094 -131.820312 75.761719 -132.613281 Z M 73.644531 -127.058594 C 73.644531 -126.929688 73.644531 -126.664062 73.644531 -126.53125 C 73.511719 -126.003906 73.511719 -127.324219 73.644531 -127.058594 Z M 73.117188 -125.738281 C 73.25 -125.605469 73.25 -125.472656 73.117188 -125.339844 C 72.984375 -124.945312 72.984375 -125.871094 73.117188 -125.738281 Z M 72.71875 -124.285156 C 72.71875 -124.152344 72.71875 -124.019531 72.71875 -123.886719 C 72.585938 -123.621094 72.585938 -124.417969 72.71875 -124.285156 Z M 71.132812 -116.878906 C 71.265625 -116.746094 71.265625 -116.617188 71.132812 -116.484375 C 71 -116.085938 71 -117.011719 71.132812 -116.878906 Z M 70.867188 -120.054688 C 71 -119.921875 71 -119.789062 70.867188 -119.65625 C 70.867188 -119.390625 70.867188 -120.183594 70.867188 -120.054688 Z M 70.207031 -118.070312 C 71.132812 -120.054688 70.339844 -117.277344 70.074219 -117.277344 C 69.941406 -117.277344 69.941406 -117.277344 70.207031 -118.070312 Z M 66.371094 -107.492188 C 66.636719 -107.625 66.371094 -106.832031 66.242188 -106.832031 C 66.109375 -106.832031 66.242188 -107.359375 66.371094 -107.492188 Z M 65.183594 -104.1875 C 65.316406 -104.453125 65.449219 -104.714844 65.578125 -104.714844 C 65.710938 -104.714844 65.578125 -105.640625 65.84375 -105.640625 C 66.503906 -106.171875 64.652344 -102.203125 65.183594 -104.1875 Z M 62.273438 -95.855469 C 62.804688 -96.121094 61.746094 -93.875 61.746094 -94.535156 C 61.746094 -94.667969 62.140625 -95.855469 62.273438 -95.855469 Z M 59.628906 -88.453125 C 59.894531 -89.773438 60.820312 -90.304688 60.027344 -88.71875 C 59.628906 -87.660156 58.835938 -85.675781 59.628906 -88.453125 Z M 51.566406 -67.695312 C 51.695312 -68.488281 52.753906 -71.132812 52.488281 -69.546875 C 52.488281 -69.414062 51.300781 -66.371094 51.566406 -67.695312 Z M 51.695312 -63.992188 C 52.09375 -63.992188 52.226562 -63.332031 51.566406 -63.859375 C 51.433594 -63.992188 51.433594 -63.992188 51.695312 -63.992188 Z M 50.769531 -65.578125 C 51.695312 -68.488281 51.300781 -65.316406 50.902344 -64.785156 C 50.507812 -63.992188 50.507812 -64.257812 50.769531 -65.578125 Z M 50.109375 -63.199219 C 50.109375 -63.464844 50.109375 -63.726562 50.242188 -63.859375 C 50.507812 -64.390625 50.640625 -63.332031 50.375 -63.199219 C 50.109375 -62.933594 50.109375 -62.933594 50.109375 -63.199219 Z M 50.375 -60.160156 C 50.375 -59.628906 49.976562 -59.628906 50.109375 -60.160156 C 50.242188 -60.554688 50.375 -60.554688 50.375 -60.160156 Z M 48.390625 -49.183594 C 47.863281 -49.183594 48.523438 -49.316406 48.65625 -49.183594 C 48.65625 -49.183594 48.65625 -49.183594 48.390625 -49.183594 Z M 48.921875 -59.761719 C 49.050781 -60.421875 49.582031 -62.007812 49.714844 -61.878906 C 49.714844 -61.480469 49.183594 -60.289062 49.050781 -59.894531 C 48.789062 -59.367188 48.789062 -59.367188 48.921875 -59.761719 Z M 49.050781 -56.722656 C 48.789062 -56.984375 49.183594 -56.984375 49.316406 -56.722656 C 49.449219 -56.457031 49.183594 -56.324219 49.050781 -56.722656 Z M 49.316406 -52.09375 C 48.257812 -52.09375 49.449219 -53.152344 49.582031 -52.886719 C 49.714844 -52.621094 49.847656 -52.09375 49.316406 -52.09375 Z M 50.507812 -56.324219 C 50.242188 -56.324219 49.847656 -56.722656 49.976562 -56.722656 C 50.375 -56.851562 50.640625 -58.308594 50.769531 -58.570312 C 51.566406 -61.085938 52.753906 -64.785156 53.679688 -67.296875 C 55.132812 -71 56.589844 -77.742188 58.570312 -80.917969 C 59.101562 -81.3125 59.101562 -82.371094 59.496094 -83.03125 C 59.894531 -83.691406 59.761719 -84.089844 60.027344 -84.355469 C 60.421875 -84.488281 60.027344 -85.808594 60.421875 -85.542969 C 60.820312 -85.410156 60.820312 -86.734375 61.085938 -87.132812 C 61.480469 -87.527344 61.214844 -88.453125 61.480469 -88.71875 C 61.746094 -88.585938 62.007812 -89.113281 61.613281 -89.113281 C 61.480469 -89.113281 61.347656 -89.113281 61.347656 -89.246094 C 61.480469 -90.304688 62.933594 -92.15625 63.199219 -93.34375 C 63.464844 -93.742188 63.332031 -94.535156 63.726562 -94.933594 C 63.859375 -95.0625 63.992188 -95.328125 63.992188 -95.460938 C 64.390625 -96.519531 64.390625 -95.726562 65.183594 -98.632812 C 65.449219 -99.558594 67.296875 -103.65625 66.503906 -103.261719 C 65.84375 -103.128906 67.167969 -104.582031 67.167969 -104.847656 C 67.296875 -105.640625 67.695312 -105.246094 67.960938 -106.300781 C 68.621094 -107.890625 69.28125 -109.609375 69.679688 -111.0625 C 70.074219 -112.382812 72.058594 -115.953125 71.132812 -115.820312 C 70.867188 -115.953125 71.53125 -116.484375 71.398438 -116.746094 C 71.398438 -117.011719 71.660156 -117.144531 71.660156 -116.878906 C 72.324219 -117.9375 73.511719 -120.714844 73.644531 -122.035156 C 73.511719 -122.566406 73.910156 -122.167969 73.910156 -122.828125 C 73.910156 -123.359375 74.570312 -124.285156 74.96875 -124.285156 C 74.96875 -124.285156 74.96875 -124.417969 74.703125 -124.546875 C 74.304688 -124.679688 74.304688 -124.679688 74.703125 -124.8125 C 74.835938 -124.8125 75.097656 -124.945312 75.097656 -125.210938 C 75.230469 -126.136719 76.023438 -127.589844 76.289062 -128.382812 C 76.421875 -128.648438 76.554688 -128.777344 76.554688 -128.777344 C 76.949219 -128.515625 76.554688 -130.234375 76.949219 -129.96875 C 77.214844 -129.96875 77.214844 -130.101562 77.214844 -130.367188 C 77.214844 -130.894531 77.609375 -130.628906 77.480469 -131.027344 C 77.347656 -131.421875 77.875 -131.292969 77.742188 -131.6875 C 77.609375 -132.347656 79.460938 -134.992188 78.007812 -134.859375 C 77.480469 -134.597656 77.347656 -135.785156 77.742188 -135.257812 C 77.742188 -135.125 78.007812 -135.125 78.007812 -135.125 C 78.40625 -135.125 79.332031 -136.183594 79.460938 -136.710938 C 79.460938 -136.976562 79.726562 -137.242188 79.726562 -137.375 C 79.859375 -137.375 79.992188 -137.503906 79.992188 -137.769531 C 79.992188 -137.902344 79.992188 -138.035156 79.859375 -138.035156 C 79.59375 -137.636719 79.859375 -139.09375 79.992188 -138.5625 C 80.125 -138.429688 80.253906 -138.695312 80.386719 -139.09375 C 80.386719 -139.488281 80.785156 -140.28125 81.050781 -140.941406 C 81.710938 -142.132812 81.84375 -142.660156 81.3125 -142.265625 C 81.179688 -142.132812 81.179688 -142.132812 81.179688 -142.265625 C 81.445312 -142.792969 81.972656 -142.925781 82.105469 -143.585938 C 82.371094 -144.25 82.503906 -144.511719 82.371094 -144.378906 C 82.238281 -144.378906 82.105469 -144.378906 81.972656 -144.511719 C 81.710938 -144.777344 81.84375 -145.175781 82.105469 -144.910156 C 82.238281 -144.378906 82.636719 -144.644531 82.636719 -145.042969 C 82.636719 -145.703125 82.636719 -146.097656 82.898438 -146.496094 C 83.03125 -146.628906 83.03125 -146.761719 82.898438 -146.894531 C 82.769531 -146.894531 82.769531 -147.023438 82.898438 -147.023438 C 83.164062 -147.289062 83.5625 -148.480469 83.429688 -148.742188 C 83.296875 -149.273438 84.222656 -148.742188 83.957031 -149.40625 C 83.824219 -150.199219 84.355469 -150.59375 84.488281 -151.917969 C 84.488281 -152.578125 84.75 -152.976562 84.882812 -153.238281 C 84.882812 -153.503906 85.148438 -154.164062 85.28125 -154.164062 C 85.542969 -154.164062 85.542969 -153.503906 85.28125 -153.371094 C 85.28125 -153.371094 85.148438 -152.84375 85.148438 -152.3125 C 85.015625 -151.257812 84.75 -150.992188 84.617188 -150.199219 C 84.617188 -149.667969 84.222656 -148.613281 83.957031 -148.613281 C 83.957031 -148.613281 83.824219 -148.613281 83.957031 -148.480469 C 84.089844 -148.214844 83.691406 -147.554688 83.429688 -147.6875 C 83.296875 -147.6875 83.296875 -147.554688 83.296875 -147.421875 C 83.296875 -147.421875 83.429688 -147.023438 83.429688 -146.628906 C 83.296875 -144.117188 81.578125 -140.8125 80.652344 -138.167969 C 79.859375 -135.65625 79.460938 -134.597656 78.40625 -131.820312 C 75.761719 -124.8125 72.984375 -117.804688 70.605469 -110.929688 C 67.960938 -104.453125 65.710938 -97.445312 63.199219 -90.4375 C 62.007812 -87.132812 61.214844 -84.882812 60.289062 -83.164062 C 59.628906 -81.972656 59.367188 -80.386719 58.96875 -78.933594 C 58.570312 -77.347656 56.851562 -73.378906 56.589844 -72.191406 C 55.132812 -68.488281 52.886719 -60.820312 50.902344 -56.589844 C 50.769531 -56.457031 50.507812 -56.324219 50.507812 -56.324219 Z M 79.066406 -130.367188 C 78.800781 -129.574219 78.140625 -127.984375 77.875 -127.191406 C 77.480469 -127.191406 78.667969 -129.703125 78.800781 -130.367188 C 78.800781 -130.628906 79.199219 -131.027344 79.066406 -130.367188 Z M 77.609375 -126.796875 C 77.609375 -126.398438 77.082031 -126.136719 77.480469 -126.929688 C 77.609375 -127.191406 77.609375 -127.058594 77.609375 -126.796875 Z M 77.082031 -125.339844 C 76.6875 -124.679688 76.289062 -122.566406 76.023438 -122.828125 C 75.890625 -122.828125 77.875 -127.984375 77.082031 -125.339844 Z M 77.082031 -123.359375 C 76.949219 -122.960938 76.949219 -123.886719 77.082031 -123.621094 C 77.082031 -123.621094 77.082031 -123.492188 77.082031 -123.359375 Z M 72.984375 -114.367188 C 72.851562 -113.972656 72.851562 -114.765625 72.984375 -114.632812 C 72.984375 -114.632812 72.984375 -114.5 72.984375 -114.367188 Z M 70.734375 -108.285156 C 70.734375 -108.152344 70.605469 -107.359375 70.339844 -107.226562 C 70.207031 -107.226562 70.339844 -107.890625 70.605469 -108.285156 C 70.734375 -108.550781 70.734375 -108.550781 70.734375 -108.285156 Z M 69.414062 -104.1875 C 68.222656 -100.882812 66.242188 -94.800781 65.449219 -93.082031 C 65.183594 -92.417969 64.917969 -92.15625 64.917969 -92.550781 C 65.316406 -94.007812 66.769531 -97.574219 67.167969 -98.898438 C 68.222656 -102.203125 69.414062 -105.375 70.207031 -107.09375 C 70.339844 -107.09375 69.808594 -105.246094 69.414062 -104.1875 Z M 64.390625 -90.570312 C 64.390625 -90.304688 64.257812 -89.773438 64.125 -89.90625 C 63.859375 -90.304688 64.523438 -91.230469 64.652344 -91.757812 C 64.652344 -91.890625 64.652344 -92.023438 64.785156 -92.023438 C 65.316406 -92.023438 64.257812 -90.832031 64.390625 -90.570312 Z M 62.671875 -85.542969 C 62.539062 -85.28125 62.539062 -84.089844 62.140625 -84.089844 C 61.746094 -84.089844 62.140625 -84.75 62.140625 -84.882812 C 62.40625 -85.28125 62.933594 -87.792969 63.464844 -87.792969 C 63.464844 -87.660156 63.199219 -86.734375 62.671875 -85.542969 Z M 61.085938 -81.179688 C 60.953125 -80.519531 60.820312 -81.445312 61.085938 -81.445312 C 61.214844 -81.445312 61.214844 -81.3125 61.085938 -81.179688 Z M 60.554688 -79.460938 C 60.421875 -79.066406 60.421875 -80.253906 60.554688 -79.859375 C 60.554688 -79.726562 60.554688 -79.59375 60.554688 -79.460938 Z M 59.367188 -76.289062 C 59.101562 -76.15625 59.234375 -77.082031 59.367188 -76.554688 C 59.367188 -76.421875 59.367188 -76.289062 59.367188 -76.289062 Z M 58.308594 -72.984375 C 58.308594 -73.378906 58.703125 -72.851562 58.441406 -72.71875 C 58.441406 -72.71875 58.308594 -72.851562 58.308594 -72.984375 Z M 58.308594 -72.058594 C 58.175781 -71.398438 57.382812 -71.398438 57.910156 -71.792969 C 58.175781 -71.792969 58.042969 -72.324219 58.308594 -72.453125 C 58.441406 -72.453125 58.441406 -72.324219 58.308594 -72.058594 Z M 55.925781 -66.109375 C 55.925781 -65.84375 55.664062 -65.578125 55.664062 -65.976562 C 55.53125 -66.242188 55.925781 -66.371094 55.925781 -66.109375 Z M 54.605469 -63.199219 C 54.605469 -63.332031 55.132812 -64.652344 55.132812 -63.726562 C 55.132812 -63.464844 54.605469 -62.539062 54.605469 -63.199219 Z M 54.207031 -57.117188 C 54.472656 -57.117188 53.945312 -56.589844 53.8125 -56.722656 C 53.679688 -56.722656 54.078125 -57.25 54.207031 -57.117188 Z M 53.679688 -56.058594 C 53.679688 -55.925781 53.679688 -55.796875 53.546875 -55.53125 C 53.285156 -55.003906 53.546875 -56.457031 53.679688 -56.058594 Z M 153.503906 -117.9375 C 144.117188 -107.492188 141.867188 -105.640625 131.953125 -97.707031 C 124.945312 -92.683594 116.617188 -86.207031 110.929688 -82.898438 C 102.863281 -77.480469 93.082031 -71.925781 85.015625 -67.035156 C 82.898438 -66.109375 80.253906 -64.652344 78.273438 -63.464844 C 74.703125 -61.746094 71.53125 -60.421875 68.355469 -58.703125 C 64.523438 -56.984375 59.367188 -54.605469 55.132812 -53.152344 C 54.738281 -52.886719 52.886719 -52.09375 52.359375 -52.09375 C 52.09375 -52.09375 52.09375 -52.488281 52.359375 -52.753906 C 52.621094 -53.8125 52.886719 -54.605469 54.605469 -54.738281 C 55.132812 -54.738281 55.398438 -55.398438 55.796875 -55.398438 C 56.722656 -55.664062 58.703125 -56.589844 59.628906 -56.851562 C 60.160156 -57.25 60.953125 -57.117188 60.953125 -57.648438 C 60.953125 -57.910156 60.953125 -57.910156 61.214844 -57.777344 C 61.347656 -57.777344 61.746094 -57.910156 62.140625 -58.042969 C 62.671875 -58.441406 63.199219 -58.308594 63.597656 -58.570312 C 63.726562 -58.835938 64.390625 -58.703125 64.523438 -58.96875 C 66.503906 -60.160156 69.015625 -61.085938 71.132812 -62.273438 C 74.304688 -63.726562 72.191406 -63.464844 71 -62.671875 C 71 -62.539062 70.472656 -62.539062 69.941406 -62.40625 C 69.015625 -62.539062 68.753906 -62.140625 68.222656 -62.140625 C 68.222656 -62.140625 68.355469 -62.273438 68.753906 -62.40625 C 69.414062 -62.804688 69.941406 -63.332031 69.546875 -63.332031 C 69.148438 -63.332031 67.695312 -62.539062 67.296875 -62.671875 C 65.84375 -62.273438 67.035156 -61.613281 64.785156 -60.953125 C 63.464844 -60.421875 61.347656 -59.761719 60.421875 -59.234375 C 60.289062 -59.101562 59.761719 -58.96875 59.496094 -58.96875 C 60.421875 -59.761719 64.257812 -60.953125 65.183594 -61.878906 C 64.125 -61.746094 60.554688 -60.160156 59.761719 -59.894531 C 59.496094 -59.761719 58.308594 -59.367188 57.117188 -58.96875 C 55.398438 -58.441406 54.738281 -57.777344 54.078125 -57.777344 C 53.945312 -57.910156 55.53125 -62.007812 55.796875 -63.066406 C 55.796875 -63.199219 56.589844 -65.449219 57.117188 -67.035156 C 57.515625 -68.355469 58.042969 -69.148438 58.441406 -70.339844 C 59.367188 -72.453125 59.628906 -73.511719 60.554688 -76.15625 C 60.953125 -77.875 64.125 -84.488281 63.992188 -85.015625 C 64.785156 -87.527344 66.503906 -91.625 67.296875 -94.269531 C 70.339844 -102.46875 73.910156 -111.988281 76.949219 -119.789062 C 81.3125 -131.027344 87 -145.835938 90.171875 -157.601562 C 91.230469 -160.90625 92.816406 -166.460938 93.210938 -170.296875 C 93.476562 -172.277344 95.460938 -177.039062 94.667969 -178.625 C 93.742188 -179.945312 95.460938 -179.816406 96.121094 -180.210938 C 97.445312 -180.609375 100.089844 -181.796875 101.542969 -182.0625 C 116.351562 -186.425781 133.804688 -188.542969 148.480469 -182.589844 C 149.273438 -182.0625 152.84375 -181.003906 153.769531 -180.609375 C 153.769531 -180.34375 154.5625 -180.476562 154.5625 -180.210938 C 154.5625 -180.210938 154.824219 -179.945312 155.089844 -179.683594 C 158.394531 -177.433594 163.550781 -173.601562 165.140625 -169.632812 C 168.839844 -162.230469 168.3125 -152.3125 165.933594 -144.910156 C 161.171875 -128.382812 146.097656 -115.292969 133.9375 -104.980469 C 129.574219 -100.75 124.417969 -97.046875 119.921875 -94.007812 C 119.390625 -93.609375 114.5 -90.964844 114.894531 -89.90625 C 115.027344 -89.644531 116.085938 -90.570312 116.21875 -90.4375 C 116.351562 -90.4375 116.484375 -90.570312 116.484375 -90.699219 C 117.410156 -91.097656 118.597656 -92.417969 119.921875 -93.082031 C 120.183594 -93.34375 120.183594 -93.34375 120.054688 -92.949219 C 118.335938 -91.230469 119.921875 -90.964844 120.316406 -92.550781 C 120.316406 -92.683594 120.316406 -92.683594 120.582031 -92.683594 C 121.242188 -92.683594 121.242188 -92.683594 121.109375 -92.949219 C 120.847656 -93.082031 120.976562 -93.082031 121.242188 -92.949219 C 121.640625 -92.949219 122.035156 -93.210938 121.902344 -93.476562 C 121.773438 -93.609375 122.566406 -94.269531 122.828125 -94.269531 C 123.359375 -94.667969 124.019531 -95.59375 124.945312 -95.726562 C 125.339844 -95.855469 126.265625 -97.046875 126.664062 -97.179688 C 127.324219 -97.839844 129.835938 -98.898438 130.367188 -99.824219 C 130.628906 -100.351562 130.761719 -100.484375 131.421875 -100.351562 C 132.085938 -100.351562 133.539062 -100.882812 133.539062 -101.144531 C 133.539062 -101.277344 133.539062 -101.410156 133.40625 -101.410156 C 133.011719 -101.410156 133.40625 -101.9375 133.9375 -102.070312 C 134.464844 -102.203125 134.464844 -102.863281 134.730469 -102.996094 C 136.449219 -103.527344 136.449219 -104.847656 138.296875 -105.113281 C 140.148438 -106.964844 142.925781 -108.8125 144.910156 -111.195312 C 146.496094 -112.515625 147.820312 -113.574219 152.3125 -118.335938 C 153.636719 -119.921875 153.769531 -119.789062 154.5625 -121.109375 C 154.824219 -121.109375 154.5625 -121.507812 154.824219 -121.375 C 155.089844 -121.375 155.089844 -121.902344 155.355469 -121.902344 C 155.621094 -121.902344 156.148438 -122.695312 156.28125 -123.226562 C 156.414062 -123.621094 156.414062 -123.621094 156.675781 -123.621094 C 156.941406 -123.492188 157.207031 -123.621094 157.46875 -124.285156 C 158.261719 -125.738281 158.925781 -126.265625 159.585938 -127.589844 C 160.777344 -128.910156 160.378906 -128.648438 160.644531 -129.308594 C 161.304688 -129.574219 163.289062 -133.9375 163.816406 -134.859375 C 164.214844 -134.992188 164.742188 -136.183594 164.742188 -136.449219 C 164.609375 -136.84375 165.007812 -136.578125 165.007812 -136.976562 C 165.007812 -137.109375 165.007812 -137.242188 165.140625 -137.242188 C 165.140625 -137.242188 165.402344 -137.503906 165.535156 -137.769531 C 165.800781 -138.167969 165.800781 -138.296875 165.933594 -138.035156 C 166.328125 -137.109375 164.875 -134.597656 164.609375 -134.199219 C 161.964844 -128.117188 158.132812 -122.960938 153.503906 -117.9375 Z M 56.589844 -58.175781 C 56.589844 -58.175781 56.722656 -58.175781 56.851562 -58.175781 C 57.117188 -58.042969 56.457031 -58.042969 56.589844 -58.175781 Z M 58.308594 -58.703125 C 58.835938 -58.703125 58.308594 -58.308594 58.175781 -58.570312 C 58.042969 -58.570312 58.175781 -58.703125 58.308594 -58.703125 Z M 67.167969 -60.953125 C 67.167969 -60.953125 67.167969 -60.820312 67.167969 -60.820312 C 66.503906 -61.085938 66.503906 -61.347656 67.296875 -61.746094 C 68.089844 -62.140625 68.089844 -62.140625 67.5625 -61.613281 C 67.296875 -61.347656 67.167969 -61.085938 67.167969 -60.953125 Z M 165.933594 -142.792969 L 165.933594 -142.132812 C 165.933594 -141.738281 165.800781 -141.207031 165.667969 -140.941406 C 164.875 -139.886719 165.800781 -142.398438 165.933594 -142.792969 Z M 164.082031 -136.316406 C 164.214844 -136.050781 163.816406 -136.578125 163.816406 -136.050781 C 163.683594 -135.65625 163.15625 -134.992188 163.15625 -134.597656 C 163.023438 -134.464844 163.023438 -134.199219 162.890625 -134.199219 C 162.230469 -134.199219 163.289062 -135.785156 163.683594 -136.710938 C 164.476562 -138.695312 164.476562 -138.5625 164.609375 -138.429688 C 164.875 -138.167969 164.082031 -136.84375 164.082031 -136.316406 Z M 159.1875 -128.25 C 158.527344 -127.191406 156.675781 -125.339844 158.792969 -128.382812 C 160.644531 -131.160156 160.90625 -131.554688 161.570312 -132.613281 C 162.496094 -133.804688 160.90625 -130.761719 160.90625 -130.894531 C 160.644531 -130.761719 160.511719 -130.101562 160.378906 -129.835938 C 159.585938 -129.042969 159.1875 -128.382812 159.1875 -128.25 Z M 159.71875 -128.382812 C 159.71875 -128.382812 159.71875 -128.25 159.585938 -128.117188 C 159.1875 -128.117188 159.585938 -128.648438 159.71875 -128.382812 Z M 156.542969 -124.8125 C 156.542969 -124.546875 156.148438 -124.546875 156.28125 -124.8125 C 156.414062 -125.210938 156.675781 -125.210938 156.542969 -124.8125 Z M 155.089844 -122.828125 C 155.089844 -122.433594 154.5625 -122.828125 155.089844 -123.492188 C 155.488281 -124.019531 155.621094 -124.019531 155.621094 -123.621094 C 155.621094 -123.359375 155.621094 -123.226562 155.488281 -123.359375 C 155.355469 -123.492188 154.957031 -122.960938 155.089844 -122.828125 Z M 154.5625 -122.566406 C 154.5625 -122.433594 154.429688 -122.300781 154.296875 -122.300781 C 153.898438 -122.300781 154.695312 -122.828125 154.5625 -122.566406 Z M 153.898438 -120.316406 C 153.769531 -120.054688 153.769531 -120.183594 153.636719 -120.449219 C 153.503906 -120.582031 153.898438 -120.582031 153.898438 -120.316406 Z M 153.105469 -120.847656 C 152.84375 -120.714844 152.976562 -120.183594 152.710938 -120.183594 C 152.179688 -120.183594 153.636719 -121.507812 153.105469 -120.847656 Z M 152.179688 -119.789062 C 152.179688 -119.789062 151.917969 -119.523438 151.785156 -119.257812 C 150.726562 -118.203125 152.050781 -120.054688 152.179688 -119.789062 Z M 147.554688 -115.691406 C 147.554688 -115.425781 147.023438 -115.558594 147.421875 -115.820312 C 147.421875 -115.820312 147.554688 -115.820312 147.554688 -115.691406 Z M 146.230469 -114.5 C 146.230469 -114.367188 146.230469 -114.234375 146.097656 -114.234375 C 145.703125 -114.234375 146.230469 -114.765625 146.230469 -114.5 Z M 145.835938 -114.101562 C 145.570312 -113.441406 143.984375 -112.253906 143.457031 -111.722656 C 143.191406 -111.195312 142.925781 -111.0625 142.925781 -111.328125 C 142.925781 -111.589844 145.175781 -113.707031 145.835938 -114.101562 Z M 142.660156 -110.929688 C 142.660156 -110.664062 141.867188 -110.796875 142.53125 -111.0625 C 142.660156 -111.0625 142.660156 -111.0625 142.660156 -110.929688 Z M 141.605469 -109.871094 C 141.605469 -109.871094 141.472656 -109.738281 141.339844 -109.738281 C 140.941406 -109.871094 141.605469 -110.402344 141.605469 -109.871094 Z M 140.414062 -109.078125 C 140.28125 -109.210938 140.941406 -109.609375 140.941406 -109.476562 C 141.074219 -109.34375 140.414062 -108.8125 140.414062 -109.078125 Z M 135.917969 -105.113281 C 135.523438 -104.714844 135.257812 -104.847656 135.785156 -105.246094 C 136.183594 -105.640625 136.449219 -105.507812 135.917969 -105.113281 Z M 124.285156 -95.988281 C 124.152344 -95.726562 123.359375 -95.855469 124.019531 -96.121094 C 124.152344 -96.121094 124.285156 -96.121094 124.285156 -95.988281 Z M 164.875 -131.953125 C 164.609375 -131.820312 164.742188 -132.347656 164.875 -132.21875 C 165.140625 -132.21875 165.007812 -132.085938 164.875 -131.953125 Z M 165.800781 -133.9375 C 165.402344 -133.40625 165.402344 -132.613281 165.007812 -132.613281 C 165.007812 -132.878906 165.933594 -134.730469 166.0625 -134.859375 C 166.460938 -135.257812 166.328125 -134.730469 165.800781 -133.9375 Z M 166.460938 -135.257812 C 165.667969 -135.257812 166.859375 -136.578125 166.726562 -135.65625 C 166.726562 -135.523438 166.59375 -135.390625 166.460938 -135.257812 Z M 167.914062 -140.8125 C 167.519531 -140.414062 167.652344 -139.222656 167.519531 -138.960938 C 167.386719 -138.960938 167.121094 -137.242188 166.859375 -137.503906 C 166.859375 -137.636719 166.859375 -138.035156 166.988281 -138.429688 C 167.386719 -139.222656 167.386719 -140.941406 167.78125 -141.472656 C 168.179688 -141.867188 168.179688 -141.605469 167.914062 -140.8125 Z M 168.445312 -149.40625 C 167.253906 -143.191406 168.3125 -150.859375 168.445312 -153.371094 C 168.578125 -155.355469 168.707031 -155.882812 168.839844 -154.695312 C 168.972656 -153.898438 168.839844 -152.179688 168.445312 -149.40625 Z M 168.707031 -161.4375 C 168.046875 -161.703125 168.3125 -162.757812 167.78125 -164.476562 C 167.253906 -167.386719 165.402344 -170.558594 164.875 -172.542969 C 164.875 -172.675781 164.875 -172.675781 164.875 -172.410156 C 164.875 -172.277344 165.007812 -172.015625 165.269531 -172.015625 C 165.535156 -171.75 165.402344 -171.351562 165.667969 -171.089844 C 165.800781 -171.089844 165.933594 -170.957031 165.933594 -170.824219 C 165.933594 -170.296875 166.859375 -169.105469 166.195312 -170.691406 C 165.800781 -171.882812 166.328125 -171.882812 166.59375 -170.957031 C 166.726562 -170.558594 168.578125 -166.859375 168.578125 -166.328125 C 168.445312 -165.667969 169.371094 -161.703125 168.707031 -161.4375 Z M 86.601562 -71.925781 C 86.867188 -72.324219 87.792969 -72.453125 87.925781 -72.71875 C 88.054688 -72.984375 88.453125 -72.851562 88.585938 -73.117188 C 88.980469 -74.042969 86.867188 -72.324219 86.335938 -72.191406 C 85.28125 -71.792969 85.675781 -71.132812 86.601562 -71.925781 Z M 131.6875 -46.539062 C 126.664062 -46.011719 135.125 -46.277344 135.65625 -46.804688 C 136.316406 -47.203125 133.9375 -46.671875 131.6875 -46.539062 Z M 72.851562 -64.652344 C 71.660156 -64.785156 71.53125 -63.726562 72.71875 -64.390625 C 73.117188 -64.652344 73.117188 -64.652344 72.851562 -64.652344 Z M 73.378906 -64.785156 C 73.511719 -64.785156 74.835938 -65.578125 74.703125 -65.578125 C 74.570312 -65.710938 72.71875 -65.183594 73.378906 -64.785156 Z M 104.582031 -83.429688 C 104.320312 -83.429688 103.394531 -82.636719 103.394531 -82.371094 C 103.394531 -82.371094 103.261719 -82.238281 103.128906 -82.238281 C 102.863281 -82.238281 102.203125 -81.710938 102.070312 -81.445312 C 102.070312 -81.3125 103.65625 -82.238281 104.453125 -82.769531 C 104.714844 -83.03125 104.847656 -83.429688 104.582031 -83.429688 Z M 34.640625 -147.289062 C 35.300781 -147.6875 39.402344 -151.519531 39.269531 -151.652344 C 38.210938 -150.726562 35.433594 -148.613281 34.640625 -147.289062 Z M 65.976562 -170.957031 C 64.785156 -170.425781 63.199219 -169.898438 62.539062 -168.707031 C 62.671875 -168.707031 63.066406 -168.972656 63.597656 -169.238281 C 64.652344 -169.898438 64.785156 -169.503906 65.578125 -170.296875 C 66.242188 -170.824219 66.371094 -170.558594 67.035156 -171.089844 C 67.5625 -171.617188 67.035156 -171.484375 65.976562 -170.957031 Z M 49.449219 -160.113281 C 47.203125 -158.394531 45.085938 -156.808594 43.632812 -155.488281 C 43.5 -155.621094 41.914062 -154.03125 41.382812 -153.636719 C 40.722656 -152.976562 41.25 -153.371094 43.632812 -155.222656 C 46.804688 -157.867188 48.390625 -158.792969 50.242188 -160.511719 C 50.242188 -160.644531 49.847656 -160.378906 49.449219 -160.113281 Z M 60.554688 -167.78125 C 60.554688 -167.652344 59.894531 -167.253906 59.894531 -167.121094 C 60.160156 -167.121094 61.347656 -167.914062 61.347656 -168.046875 C 61.480469 -168.179688 60.820312 -168.046875 60.554688 -167.78125 Z M 80.652344 -178.359375 C 79.332031 -177.699219 75.890625 -176.246094 73.378906 -174.789062 C 72.058594 -174.128906 69.808594 -173.203125 68.886719 -172.542969 C 68.886719 -172.277344 68.355469 -172.410156 68.355469 -172.144531 C 68.089844 -171.617188 69.679688 -172.675781 69.941406 -172.808594 C 71.265625 -173.46875 72.453125 -173.996094 74.171875 -174.921875 C 76.023438 -175.320312 77.480469 -176.507812 79.59375 -177.304688 C 81.179688 -178.097656 81.578125 -178.226562 82.503906 -178.625 C 82.503906 -178.757812 80.785156 -178.492188 80.652344 -178.359375 Z M 55.398438 -164.34375 C 54.207031 -163.023438 56.851562 -165.140625 56.722656 -165.140625 C 56.722656 -165.402344 55.796875 -164.875 55.398438 -164.34375 Z M 54.738281 -163.816406 C 54.605469 -163.816406 50.769531 -161.304688 50.507812 -160.777344 C 51.035156 -160.777344 53.546875 -162.890625 54.472656 -163.421875 C 54.738281 -163.550781 55.003906 -163.816406 54.738281 -163.816406 Z M 54.738281 -163.816406 "/></g></g></g></svg>